<?xml version="1.0" encoding="utf-8"?>
<!-- Generator: Adobe Illustrator 27.0.0, SVG Export Plug-In . SVG Version: 6.00 Build 0)  -->
<svg version="1.1" xmlns="http://www.w3.org/2000/svg" xmlns:xlink="http://www.w3.org/1999/xlink" x="0px" y="0px"
	 viewBox="0 0 1004 120" style="enable-background:new 0 0 1004 120;" xml:space="preserve">
<style type="text/css">
	.st0{fill:url(#SVGID_1_);}
	.st1{fill:#2F557A;}
	.st2{font-family:'ArialMT';}
	.st3{font-size:45.1722px;}
	.st4{fill:#FF521E;}
	.st5{font-size:58.0963px;}
	.st6{fill:#EA3F18;}
	.st7{fill:#FFC212;}
	.st8{fill:#FF511E;}
	.st9{opacity:0.62;fill:#FFFFFF;enable-background:new    ;}
	.st10{opacity:0.56;fill:#FFFFFF;enable-background:new    ;}
	.st11{fill:#FFC218;}
	.st12{fill:#E3E3E1;}
	.st13{opacity:0.65;fill:#FFFFFF;enable-background:new    ;}
</style>
<g id="圖層_1">
	<linearGradient id="SVGID_1_" gradientUnits="userSpaceOnUse" x1="-0.0388" y1="60.2179" x2="1004.2559" y2="60.2179">
		<stop  offset="0.0898" style="stop-color:#FFC600"/>
		<stop  offset="0.8235" style="stop-color:#F8B62D;stop-opacity:0.8"/>
	</linearGradient>
	<rect x="-0.04" y="0.62" class="st0" width="1004.29" height="119.19"/>
	<g>
		<text transform="matrix(1.1467 0 0 1 401.5488 49.8591)" class="st1 st2 st3">TIME TO</text>
		<text transform="matrix(1.1467 0 0 1 401.5488 98.0413)" class="st4 st2 st5">THINK</text>
	</g>
	<g>
		<path class="st4" d="M48.32,57.11l-1.58,0.73l2.17-0.13C48.71,57.52,48.51,57.32,48.32,57.11z"/>
		<path class="st4" d="M44.7,47.65l2.97,0.87c0.54-0.85,1.25-1.59,2.07-2.18l-1.21-2.19l-4.19,0.25c-3.84,0.23-6.79,3.45-6.56,7.19
			c0.13,2.23,1.37,4.14,3.16,5.27c-0.16-1.61,0.32-3.28,1.35-4.62c0.45-0.59,1.01-1.1,1.63-1.54l-0.31-0.09L44.7,47.65z"/>
		<path class="st4" d="M42.29,52.23c-1.03,1.34-1.5,3.01-1.35,4.62c1.21,0.76,2.67,1.17,4.22,1.08l0.1-0.01L44,55.63l2.8-1.3
			c-0.27-0.91-0.35-1.88-0.22-2.86l-2.66-0.78C43.3,51.13,42.74,51.65,42.29,52.23z"/>
		<path class="st4" d="M62.23,56.09c-0.19,0.3-0.42,0.59-0.65,0.86l2.98-0.18L62.23,56.09z"/>
		<path class="st4" d="M59.72,44.25c0.73,0.28,1.41,0.66,2.01,1.13C61.13,44.91,60.45,44.53,59.72,44.25l-0.51,1.4
			c0.93,0.48,1.73,1.12,2.38,1.86l2.8-1.3l1.52,2.77l-2.8,1.3c0.27,0.91,0.35,1.88,0.22,2.86L66.29,54l-1,2.73l18.24-1.09l0.59-0.81
			l1.19,0.7l2.79-0.17c0.39-0.24,0.81-0.44,1.25-0.62l-0.62-2.78l2.55-0.49c-0.14-0.1-0.28-0.2-0.42-0.29
			c-1.59-1-3.71-1.22-5.53-0.59l-0.03,0.01c-0.25,0.09-0.58,0.2-0.95,0.12c-0.3-0.07-0.5-0.24-0.66-0.38l-0.03-0.02
			c-0.07-0.06-0.14-0.12-0.21-0.18c-0.02,0.06-0.04,0.12-0.07,0.18l1.18,0.7l-0.85,1.18l-1.18-0.7c-0.33,0.31-0.73,0.56-1.18,0.74
			l0.28,1.25l-1.51,0.29l-0.28-1.25c-0.49,0-0.96-0.08-1.4-0.24l-0.78,1.08l-1.29-0.76l0.78-1.08c-0.33-0.3-0.6-0.66-0.8-1.06
			l-0.77,0.15c-0.18,0.17-0.34,0.36-0.49,0.55l-0.79-0.49c0.16-0.21,0.33-0.41,0.52-0.59l-0.16-0.72l1.38-0.27
			c0-0.44,0.1-0.87,0.27-1.27l-1.18-0.7l0.85-1.18l1.18,0.7c0.33-0.31,0.73-0.56,1.18-0.74l-0.28-1.25l1.51-0.29l0.28,1.25
			c0.49,0,0.96,0.08,1.4,0.23l0.78-1.08l1.29,0.76l-0.78,1.08c0.33,0.3,0.6,0.66,0.8,1.06l1.38-0.27l0.31,1.37l-1.38,0.27
			c0,0.04-0.01,0.08-0.01,0.11c0.24,0.16,0.47,0.33,0.69,0.51l0.03,0.02c0.08,0.07,0.18,0.16,0.24,0.17
			c0.07,0.02,0.23-0.04,0.36-0.09l0.03-0.01c2.11-0.73,4.57-0.47,6.42,0.69c1.41,0.88,2.4,2.25,2.79,3.76
			c0.55,0.09,1.09,0.22,1.6,0.41l1.73-2.39l2.85,1.69l-0.98,1.35c1.56,0.53,2.91,1.54,3.83,2.85l0.24-0.05l0.15,0.67
			c0.52,0.93,0.85,1.99,0.92,3.12c0.15,2.57-1.06,4.92-3.03,6.39l-0.32,0.44l-0.17-0.1c-1,0.63-2.17,1.05-3.44,1.17l0,0.01
			l-1.38,0.08l0.38,1.71l-3.35,0.65l-0.48-2.15L88.5,70.3l-0.72,0.99l-1.45-0.86l-36.7,2.19l-0.11,0.11
			c0.45,0.55,0.79,1.18,0.99,1.87l2.27-0.14l0.13,2.26l-2.27,0.14c-0.12,0.71-0.38,1.38-0.76,1.98l1.7,1.37l-1.66,1.7l-1.7-1.37
			c-0.61,0.42-1.31,0.74-2.07,0.92l0.12,2.07l-2.49,0.15l-0.12-2.07c-0.78-0.1-1.51-0.33-2.17-0.67l-1.42,1.45
			c1.15,2.49,3.8,4.16,6.77,3.98l51.4-3.07c0.88-0.05,1.74,0.04,2.55,0.27l2.6-0.15c5.75-0.34,10.19-4.89,9.88-10.11
			c-0.18-2.99-1.89-5.58-4.4-7.18c1.19-1.52,1.84-3.39,1.72-5.38c-0.24-4.02-3.55-7.19-7.75-7.77c0.32-0.94,0.47-1.94,0.41-2.97
			c-0.28-4.64-4.64-8.16-9.76-7.85c-1.02,0.06-2,0.27-2.9,0.61c-0.15-0.38-0.32-0.75-0.53-1.1L60,43.46L59.72,44.25z M66.35,79.98
			l-0.85,1.18l-1.18-0.7c-0.33,0.31-0.73,0.56-1.18,0.74l0.28,1.25l-1.51,0.29l-0.28-1.25c-0.49,0-0.96-0.08-1.4-0.23l-0.78,1.08
			l-1.29-0.76l0.78-1.08c-0.33-0.3-0.6-0.66-0.8-1.06l-1.38,0.27l-0.31-1.37l1.38-0.27c0-0.44,0.1-0.87,0.27-1.27l-1.18-0.7
			l0.85-1.18l1.18,0.7c0.33-0.31,0.73-0.56,1.18-0.74l-0.28-1.25l1.51-0.29l0.28,1.25c0.49,0,0.96,0.08,1.4,0.24l0.78-1.08
			l1.29,0.76l-0.78,1.08c0.33,0.3,0.6,0.66,0.8,1.06l1.38-0.27l0.31,1.37l-1.38,0.27c0,0.44-0.1,0.87-0.27,1.27L66.35,79.98z
			 M86.77,79.55l-0.85,1.18l-1.18-0.7c-0.33,0.31-0.73,0.56-1.18,0.74l0.28,1.25l-1.51,0.29l-0.28-1.25c-0.49,0-0.96-0.08-1.4-0.23
			l-0.78,1.08l-1.29-0.76l0.78-1.08c-0.33-0.3-0.6-0.66-0.8-1.06l-1.38,0.27l-0.31-1.37l1.38-0.27c0-0.44,0.1-0.87,0.27-1.27
			l-1.18-0.7l0.85-1.18l1.18,0.7c0.33-0.31,0.73-0.56,1.18-0.74l-0.28-1.25l1.51-0.29l0.28,1.25c0.49,0,0.96,0.08,1.4,0.24
			l0.78-1.08l1.29,0.76l-0.78,1.08c0.33,0.3,0.6,0.66,0.8,1.06l1.38-0.27l0.31,1.37l-1.38,0.27c0,0.44-0.1,0.87-0.27,1.27
			L86.77,79.55z M105.89,69.01c0.35,0.51,0.47,1.13,0.51,1.73c0.16,2.46-0.99,4.98-3.02,6.64c-2.04,1.66-4.91,2.41-7.58,1.99
			c2.67,0.42,5.55-0.33,7.58-1.99c2.04-1.65,3.18-4.17,3.02-6.64C106.36,70.13,106.24,69.52,105.89,69.01
			c-0.35-0.51-0.98-0.9-1.64-0.87C104.91,68.11,105.53,68.5,105.89,69.01z"/>
		<path class="st4" d="M55.17,43.75l-2.91,0.17l0.36,0.65c0.59-0.3,1.22-0.54,1.87-0.7C54.72,43.82,54.94,43.78,55.17,43.75z"/>
		<path class="st4" d="M81.66,75.81c-1.09,0.21-1.8,1.18-1.58,2.17c0.22,0.99,1.28,1.62,2.37,1.41c1.09-0.21,1.8-1.18,1.58-2.17
			C83.81,76.23,82.75,75.6,81.66,75.81z"/>
		<path class="st4" d="M61.24,76.24c-1.09,0.21-1.8,1.18-1.58,2.17c0.22,0.99,1.28,1.62,2.37,1.41c1.09-0.21,1.8-1.18,1.58-2.17
			C63.4,76.66,62.33,76.03,61.24,76.24z"/>
		<path class="st4" d="M68.3,66.33c1.36-0.26,2.24-1.48,1.97-2.72c-0.28-1.24-1.6-2.02-2.97-1.76c-1.36,0.26-2.24,1.48-1.97,2.72
			C65.61,65.8,66.94,66.59,68.3,66.33z"/>
		<path class="st4" d="M56.37,48.44c-2.34-0.69-4.87,0.48-5.65,2.61c-0.78,2.13,0.47,4.42,2.81,5.11c2.34,0.69,4.87-0.48,5.65-2.61
			C59.97,51.42,58.71,49.13,56.37,48.44z"/>
		<path class="st4" d="M39.1,81.79l-0.97-0.78l0.68-0.69c-0.01-0.08-0.02-0.17-0.02-0.25c-0.04-0.62,0.01-1.23,0.12-1.82
			c-0.1-0.21-0.18-0.43-0.25-0.66l-2.27,0.14l-0.13-2.26l2.27-0.14c0.12-0.71,0.38-1.38,0.76-1.98l-1.59-1.28
			c-0.04,0.07-0.07,0.13-0.11,0.2l-0.01,0.03c-0.11,0.22-0.25,0.52-0.58,0.7c-0.27,0.15-0.54,0.16-0.77,0.17l-0.04,0
			c-1.63,0.06-3.22,0.8-4.24,1.97c-1.02,1.17-1.44,2.74-1.13,4.2l-0.95,0.18c-0.37-1.7,0.13-3.54,1.32-4.91
			c1.19-1.37,3.05-2.24,4.96-2.31l0.04,0c0.11,0,0.25-0.01,0.3-0.04c0.06-0.03,0.13-0.18,0.19-0.3l0.01-0.03
			c0.91-1.88,2.86-3.3,5.07-3.71c2.21-0.41,4.59,0.22,6.19,1.64l-0.68,0.63c-0.53-0.47-1.17-0.84-1.85-1.1l0.07,1.18
			c0.78,0.1,1.51,0.33,2.17,0.67l1.52-1.56l1.85,1.49l-0.7,0.72l34.94-2.08l-0.35-0.21l1.73-2.39c-0.74-0.67-1.34-1.46-1.76-2.36
			l-3.07,0.59l-0.65-2.93c-0.13-0.02-0.25-0.03-0.38-0.04c-1.63-0.13-3.3,0.42-4.48,1.46l-0.67-0.62c1.38-1.22,3.34-1.86,5.24-1.71
			c0.7,0.06,1.38,0.22,2.02,0.47l1.31-0.25c0-0.98,0.22-1.94,0.61-2.82l-2.61-1.55l0.79-1.09l-22.13,1.32
			c-0.23,0.21-0.47,0.41-0.72,0.59l1.39,2.53l-3.06,1.42l-1.39-2.53c-1.01,0.25-2.08,0.34-3.15,0.23l-1,2.71l-3.24-0.96l1-2.71
			c-0.35-0.18-0.68-0.4-1-0.62l-4.78,0.29l0-0.01c-1.38,0.04-2.69-0.29-3.83-0.89c0.02,0.06,0.03,0.13,0.05,0.19
			c-0.02-0.06-0.03-0.13-0.05-0.19c-2.26-1.19-3.85-3.44-4.01-6.11c-0.25-4.11,3-7.66,7.23-7.91l4.87-0.29l2.24-1.03l0.48,0.87
			l4.69-0.28l0.37-1l2.75,0.81l29.95-1.79c-1.74-2.46-4.86-4.01-8.32-3.81c-2.22,0.13-4.21,0.96-5.73,2.24
			c-1.81-1.97-4.6-3.16-7.65-2.97c-3.1,0.18-5.76,1.73-7.31,3.96c-1.81-1.73-4.42-2.75-7.26-2.58c-3.65,0.22-6.68,2.32-8.03,5.2
			c-0.72-0.12-1.46-0.16-2.22-0.11c-5.11,0.31-9.03,4.31-8.75,8.96c0.09,1.45,0.57,2.79,1.36,3.94c-0.37-0.02-0.74-0.02-1.12,0
			c-5.11,0.31-9.03,4.31-8.75,8.96c0.13,2.17,1.16,4.1,2.74,5.5c-2.85,1.86-4.65,4.95-4.44,8.33c0.25,4.25,3.59,7.68,7.92,8.63
			l-1.14,7.43l8.85-7.47l5.07-0.3C42.13,86.36,39.91,84.39,39.1,81.79z M63.05,64.12c0-0.55,0.12-1.09,0.34-1.59l-1.47-0.87
			l1.07-1.47l1.47,0.87c0.42-0.38,0.92-0.7,1.48-0.92l-0.35-1.57l1.89-0.37l0.35,1.57c0.61,0,1.2,0.1,1.75,0.29l0.98-1.35l1.61,0.95
			l-0.98,1.35c0.41,0.38,0.76,0.82,0.99,1.33l1.73-0.34l0.38,1.71l-1.73,0.34c0,0.55-0.12,1.09-0.34,1.59l1.47,0.87l-1.07,1.47
			l-1.47-0.87c-0.42,0.38-0.92,0.7-1.48,0.92l0.35,1.57l-1.89,0.37l-0.35-1.57c-0.61,0-1.2-0.1-1.75-0.29l-0.98,1.35l-1.61-0.95
			l0.98-1.35c-0.41-0.38-0.76-0.82-0.99-1.33l-1.73,0.34l-0.38-1.71L63.05,64.12z"/>
		<path class="st4" d="M54.49,43.88c-0.65,0.16-1.28,0.39-1.87,0.7l0.19,0.34c1.01-0.25,2.08-0.34,3.15-0.23l0.37-1.01l-1.15,0.07
			C54.94,43.78,54.72,43.82,54.49,43.88z"/>
		<path class="st4" d="M44.76,79.04c1.79-0.11,3.17-1.51,3.07-3.14c-0.1-1.63-1.63-2.86-3.42-2.75c-0.03,0-0.06,0.01-0.09,0.01
			c-0.92,0.29-1.76,0.76-2.46,1.37c-0.36,0.51-0.56,1.12-0.52,1.76C41.44,77.91,42.97,79.15,44.76,79.04z"/>
		<path class="st4" d="M41.95,69.07c-1.62,0.3-3.06,1.22-3.94,2.48l1.24-1.27l1.7,1.37c0.61-0.42,1.31-0.74,2.07-0.92l-0.1-1.75
			C42.59,68.98,42.27,69.01,41.95,69.07z"/>
		<path class="st4" d="M39.65,79.45c-0.06-0.07-0.11-0.15-0.16-0.22c-0.01,0.13-0.01,0.26-0.01,0.4L39.65,79.45z"/>
		<path class="st4" d="M79.43,47.28c-0.62,0.12-1.12,0.49-1.39,0.97c0.34-0.09,0.68-0.15,1.03-0.18c0.87-0.09,1.75-0.01,2.59,0.22
			C81.28,47.53,80.37,47.09,79.43,47.28z"/>
		<path class="st4" d="M79.17,48.94c-0.46,0.05-0.91,0.15-1.34,0.29c0.01,0.07,0.02,0.14,0.03,0.22c0.22,0.99,1.28,1.62,2.37,1.41
			c0.87-0.17,1.5-0.83,1.6-1.59C80.99,48.97,80.07,48.85,79.17,48.94z"/>
		<path class="st4" d="M87.02,56.12l-0.67,0.04l0.37,0.22C86.82,56.29,86.92,56.2,87.02,56.12z"/>
		<path class="st4" d="M92.69,54.1c0.15,0,0.31,0,0.46,0.01c-0.18-0.55-0.45-1.07-0.8-1.54L92.69,54.1z"/>
		<path class="st4" d="M100.4,58.67l2.07-0.4c-0.87-1.13-2.09-1.99-3.5-2.42l-0.33,0.46C99.38,56.98,99.98,57.77,100.4,58.67z"/>
		<path class="st4" d="M100.47,64.53l2.31,1.37c0.74-1.15,1.14-2.53,1.05-3.99c-0.01-0.24-0.04-0.48-0.08-0.71l-2.67,0.52
			C101.08,62.7,100.86,63.65,100.47,64.53z"/>
		<path class="st4" d="M89.02,69.59l3.01-0.18c-0.87-0.05-1.72-0.22-2.51-0.5L89.02,69.59z"/>
		<path class="st4" d="M95.96,68.77l0.09,0.39l1.22-0.07c1.12-0.07,2.16-0.39,3.08-0.9l-1.76-1.05
			C97.84,67.82,96.96,68.38,95.96,68.77z"/>
		<path class="st4" d="M93.54,65.73c2.42-0.47,3.98-2.63,3.49-4.82c-0.49-2.19-2.84-3.59-5.26-3.12c-2.42,0.47-3.98,2.62-3.49,4.82
			c0.16,0.71,0.52,1.34,1.01,1.85c1,0.25,1.94,0.7,2.73,1.32C92.51,65.84,93.02,65.83,93.54,65.73z"/>
		<path class="st6" d="M79.07,48.07c-0.35,0.03-0.7,0.1-1.03,0.18c-0.17,0.3-0.25,0.64-0.22,0.98c0.43-0.15,0.88-0.25,1.34-0.29
			c0.9-0.09,1.82,0.03,2.66,0.33c0.03-0.19,0.02-0.39-0.02-0.58c-0.03-0.14-0.08-0.27-0.14-0.4C80.83,48.06,79.95,47.98,79.07,48.07
			z"/>
		<path class="st6" d="M74.8,50.08c-0.19,0.19-0.36,0.39-0.52,0.59l0.79,0.49c0.15-0.2,0.31-0.38,0.49-0.55l-0.62,0.12L74.8,50.08z"
			/>
		<path class="st6" d="M92.35,52.57c0.35,0.47,0.62,0.99,0.8,1.54c0.35,0.02,0.69,0.05,1.03,0.1c-0.39-1.51-1.38-2.87-2.79-3.76
			c-1.85-1.16-4.31-1.42-6.42-0.69l-0.03,0.01c-0.13,0.05-0.29,0.1-0.36,0.09c-0.06-0.01-0.16-0.1-0.24-0.17l-0.03-0.02
			c-0.21-0.19-0.45-0.36-0.69-0.51c-0.01,0.34-0.08,0.66-0.2,0.98c0.07,0.06,0.14,0.12,0.21,0.18l0.03,0.02
			c0.16,0.14,0.36,0.31,0.66,0.38c0.37,0.09,0.7-0.03,0.95-0.12l0.03-0.01c1.82-0.63,3.94-0.4,5.53,0.59
			c0.15,0.09,0.29,0.19,0.42,0.29l0.81-0.16L92.35,52.57z"/>
		<path class="st6" d="M92.02,65.78c-0.79-0.62-1.73-1.07-2.73-1.32C89.98,65.18,90.95,65.65,92.02,65.78z"/>
		<path class="st6" d="M82.91,62.07c-0.64-0.25-1.32-0.41-2.02-0.47c-1.91-0.15-3.87,0.49-5.24,1.71l0.67,0.62
			c1.18-1.04,2.85-1.59,4.48-1.46c0.13,0.01,0.26,0.03,0.38,0.04l-0.02-0.11L82.91,62.07z"/>
		<path class="st6" d="M38.01,71.55c0.88-1.26,2.33-2.18,3.94-2.48c0.32-0.06,0.64-0.09,0.96-0.1l-0.02-0.32l2.49-0.15l0.05,0.88
			c0.69,0.26,1.32,0.63,1.85,1.1l0.68-0.63c-1.61-1.42-3.98-2.05-6.19-1.64c-2.21,0.41-4.16,1.83-5.07,3.71l-0.01,0.03
			c-0.06,0.12-0.13,0.26-0.19,0.3c-0.05,0.03-0.19,0.03-0.3,0.04l-0.04,0c-1.91,0.07-3.77,0.94-4.96,2.31
			c-1.19,1.37-1.69,3.21-1.32,4.91l0.95-0.18c-0.31-1.45,0.11-3.02,1.13-4.2c1.02-1.17,2.6-1.91,4.24-1.97l0.04,0
			c0.22-0.01,0.5-0.02,0.77-0.17c0.33-0.18,0.47-0.48,0.58-0.7l0.01-0.03c0.03-0.07,0.07-0.13,0.11-0.2l-0.1-0.08L38.01,71.55z"/>
		<path class="st1" d="M113.29,34.6c0.03,0.26,0.06,0.52,0.08,0.78c0.14,1.66-0.04,3.75-1.7,4.23c-0.49,0.14-1.02,0.17-1.57,0.19
			c-0.15,0.01-0.29,0.01-0.44,0.02l0-0.01l-13.81,0.82l-0.03,0l-6.16,0.37c0.15,0.21,0.29,0.43,0.42,0.66l5.81-0.35l0,0l13.53-0.81
			l0,0c0.04,0,0.09-0.01,0.13-0.01l0.15-0.01l0,0c0.14-0.01,0.28-0.02,0.43-0.02c0.14-0.01,0.29-0.01,0.43-0.02
			c0.44-0.03,0.89-0.07,1.33-0.2c1.69-0.49,2.46-2.19,2.23-4.93c-0.02-0.27-0.05-0.55-0.08-0.82c-0.22,0.05-0.44,0.08-0.66,0.09
			C113.34,34.6,113.32,34.6,113.29,34.6z"/>
		<path class="st1" d="M46.77,87.06L46.77,87.06l51.53-3.07c3.84-0.23,7.15,2.62,7.37,6.35c0.22,3.73-2.72,6.96-6.56,7.19
			l-69.31,4.14c0,0.23-0.01,0.46-0.04,0.69l69.46-4.15l0,0c4.2-0.29,7.4-3.82,7.16-7.9c-0.19-3.25-2.51-5.89-5.57-6.73l-55.95,3.34
			C45.47,87.04,46.11,87.09,46.77,87.06z"/>
		<path class="st1" d="M55.17,43.75l1.15-0.07l0.01-0.03C55.95,43.66,55.56,43.69,55.17,43.75z"/>
		<path class="st1" d="M55.17,43.75c0.39-0.06,0.78-0.09,1.17-0.1l0.25-0.67l-4.69,0.28l0.37,0.66L55.17,43.75z"/>
		<path class="st1" d="M102.47,58.27l0.76-0.15c-0.92-1.32-2.27-2.33-3.83-2.85l-0.42,0.59C100.38,56.28,101.6,57.14,102.47,58.27z"
			/>
		<path class="st1" d="M97.27,69.09l-1.22,0.07l0.15,0.68l1.38-0.08l0-0.01c1.26-0.12,2.43-0.53,3.44-1.17l-0.67-0.4
			C99.43,68.7,98.39,69.03,97.27,69.09z"/>
		<path class="st1" d="M92.02,69.41l-3.01,0.18L88.5,70.3l4.25-0.25l-0.14-0.63C92.41,69.43,92.22,69.42,92.02,69.41z"/>
		<path class="st1" d="M37.79,51.58c-0.22-3.73,2.72-6.96,6.56-7.19l4.19-0.25l-0.19-0.34l0.83-0.38l-4.87,0.29
			c-4.23,0.25-7.47,3.8-7.23,7.91c0.16,2.67,1.75,4.93,4.01,6.11c-0.07-0.29-0.12-0.58-0.15-0.88
			C39.15,55.72,37.92,53.81,37.79,51.58z"/>
		<path class="st1" d="M59.7,42.79l0.49,0.15L60,43.46l30.07-1.79c-0.13-0.23-0.27-0.45-0.42-0.66L59.7,42.79z"/>
		<path class="st1" d="M46.86,86.37c-2.97,0.18-5.62-1.49-6.77-3.98l-0.1,0.1l-0.88-0.71c0.81,2.6,3.03,4.57,5.76,5.12l55.95-3.34
			c-0.81-0.22-1.67-0.32-2.55-0.27L46.86,86.37z"/>
		<path class="st1" d="M87.02,56.12c0.33-0.27,0.69-0.52,1.06-0.75l-2.79,0.17l1.05,0.62L87.02,56.12z"/>
		<path class="st1" d="M48.91,57.71l-2.17,0.13l-1.22,0.56l-0.26-0.48l-0.1,0.01c-1.55,0.09-3.01-0.32-4.22-1.08
			c0.03,0.3,0.08,0.59,0.15,0.88c1.14,0.6,2.45,0.92,3.83,0.89l0,0.01l4.78-0.29C49.43,58.15,49.16,57.94,48.91,57.71z"/>
		<path class="st1" d="M64.56,56.77l-2.98,0.18c-0.22,0.26-0.45,0.5-0.7,0.73l22.13-1.32l0.52-0.72l-18.24,1.09l-0.09,0.23
			L64.56,56.77z"/>
		<path class="st1" d="M103.75,61.2c0.04,0.23,0.07,0.47,0.08,0.71c0.09,1.46-0.31,2.84-1.05,3.99l0.3,0.18l-1.58,2.17
			c1.97-1.46,3.18-3.81,3.03-6.39c-0.07-1.13-0.39-2.19-0.92-3.12l0.53,2.37L103.75,61.2z"/>
		<path class="st1" d="M41.86,74.52c0.71-0.61,1.54-1.08,2.46-1.37C43.28,73.24,42.39,73.77,41.86,74.52z"/>
		<polygon class="st1" points="50.34,71.89 49.63,72.62 86.33,70.43 85.28,69.81 		"/>
		<path class="st1" d="M39.48,79.23c-0.23-0.31-0.42-0.64-0.58-0.99c-0.11,0.59-0.16,1.2-0.12,1.82c0.01,0.08,0.01,0.17,0.02,0.25
			l0.67-0.69C39.47,79.5,39.48,79.36,39.48,79.23z"/>
		<path class="st7" d="M110.45,17.3l-0.07-1.48l-2.49,0.13l-0.03-0.62l2.49-0.13l-0.08-1.65l-2.49,0.13l-0.03-0.62l2.49-0.13
			l-0.06-1.23l0.68-0.03l0.06,1.23l2.49-0.13l-0.06-1.23l0.68-0.03l0.06,1.23l2.03-0.1l0.03,0.62l-2.03,0.1l0.08,1.65l2.03-0.1
			l0.03,0.62l-2.03,0.1l0.07,1.33c1.9,0.84,3.33,3.11,3.46,5.82l0.04,0.73c0.26-0.13,0.51-0.26,0.76-0.41
			c5.32-3.16,6.86-9.6,3.44-14.4c-3.41-4.79-10.49-6.12-15.81-2.97c-5.32,3.16-6.86,9.6-3.44,14.4c1.28,1.8,3.09,3.12,5.12,3.88
			l-0.04-0.73C107.7,20.71,108.79,18.41,110.45,17.3z M103.91,9.01c-0.22-1.31,2.05-2.73,5.06-3.17c3.01-0.44,5.63,0.26,5.85,1.57
			c0.22,1.31-2.05,2.73-5.06,3.17C106.74,11.03,104.13,10.32,103.91,9.01z"/>
		<path class="st7" d="M111.06,15.79l0.06,1.15c0.43-0.19,0.89-0.3,1.36-0.33c0.38-0.02,0.76,0.02,1.13,0.11l-0.05-1.06
			L111.06,15.79z"/>
		<polygon class="st7" points="113.44,13.4 110.94,13.52 111.03,15.17 113.52,15.05 		"/>
		<path class="st7" d="M114.02,34.48c0,0.01,0,0.01,0,0.02c1-0.23,1.89-0.85,2.57-1.73l-2.7,0.14
			C113.91,33.43,113.97,33.96,114.02,34.48z"/>
		<path class="st7" d="M113.16,32.95l-3.19,0.16c0.91,0.96,2.08,1.53,3.32,1.49c0-0.01,0-0.03,0-0.04
			C113.23,34.03,113.17,33.49,113.16,32.95z"/>
		<path class="st7" d="M114.67,24.58l0.13,2.59l-0.68,0.03L114,24.69c-0.83,0.12-1.67,0.15-2.5,0.1l0.13,2.54l-0.68,0.03l-0.13-2.64
			c-1.01-0.12-2.01-0.35-2.95-0.71l0.17,3.52c0.08-0.02,0.15-0.03,0.23-0.03l9.46-0.48c0.08,0,0.16,0,0.24,0.01l-0.17-3.52
			C116.79,24.02,115.74,24.37,114.67,24.58z"/>
		<path class="st7" d="M113.9,32.91l-0.74,0.04c0.01,0.54,0.07,1.08,0.13,1.61c0,0.01,0,0.03,0,0.04c0.02,0,0.05,0,0.07,0
			c0.23-0.01,0.45-0.04,0.66-0.09c0-0.01,0-0.01,0-0.02C113.97,33.96,113.91,33.43,113.9,32.91z"/>
		<path class="st7" d="M114.3,16.96l0.38,7.62c1.07-0.21,2.12-0.56,3.12-1.07l-0.04-0.73C117.62,20.07,116.19,17.8,114.3,16.96z"/>
		<path class="st7" d="M110.45,17.3c-1.66,1.1-2.75,3.4-2.62,5.99l0.04,0.73c0.94,0.36,1.94,0.59,2.95,0.71L110.45,17.3z"/>
		<path class="st7" d="M112.48,16.61c-0.48,0.02-0.94,0.14-1.36,0.33l0.39,7.85c0.83,0.05,1.66,0.02,2.5-0.1l-0.39-7.97
			C113.24,16.63,112.86,16.59,112.48,16.61z"/>
		<path class="st8" d="M108.08,28.43l-0.04-0.88c-0.52,0.13-0.89,0.57-0.87,1.07c0.02,0.38,0.26,0.7,0.61,0.87
			c0.12-0.07,0.25-0.13,0.4-0.16C108.13,29.03,108.1,28.73,108.08,28.43z"/>
		<path class="st8" d="M118.01,28.82c0.15,0.01,0.29,0.05,0.41,0.12c0.33-0.2,0.54-0.54,0.52-0.92c-0.02-0.5-0.44-0.91-0.97-0.98
			l0.04,0.88C118.03,28.23,118.02,28.53,118.01,28.82z"/>
		<path class="st8" d="M108.27,27.51c-0.08,0-0.16,0.02-0.23,0.03l0.04,0.88c0.02,0.31,0.05,0.61,0.09,0.9
			c0.06-0.01,0.12-0.02,0.18-0.03l9.46-0.48c0.06,0,0.12,0,0.18,0.01c0.02-0.3,0.02-0.6,0.01-0.9l-0.04-0.88
			c-0.08-0.01-0.16-0.01-0.24-0.01L108.27,27.51z"/>
		<path class="st8" d="M117.69,30.62l0.22-0.01c0.22-0.01,0.42,0.04,0.6,0.12c0.33-0.2,0.54-0.54,0.52-0.92
			c-0.02-0.38-0.26-0.7-0.61-0.87c-0.13,0.08-0.28,0.13-0.43,0.16C117.94,29.63,117.83,30.14,117.69,30.62z"/>
		<path class="st8" d="M108.67,31.08c-0.19-0.46-0.34-0.96-0.44-1.48c-0.16-0.01-0.31-0.05-0.45-0.12c-0.33,0.2-0.54,0.54-0.52,0.92
			c0.02,0.38,0.26,0.7,0.61,0.87c0.17-0.1,0.37-0.17,0.58-0.18L108.67,31.08z"/>
		<path class="st8" d="M108.38,29.61c-0.05,0-0.1,0-0.15-0.01c0.1,0.52,0.25,1.01,0.44,1.48l9.02-0.46c0.14-0.48,0.25-0.99,0.3-1.51
			c-0.05,0.01-0.1,0.02-0.15,0.02L108.38,29.61z"/>
		<path class="st8" d="M108.18,29.33c-0.15,0.03-0.28,0.08-0.4,0.16c0.14,0.07,0.29,0.11,0.45,0.12
			C108.21,29.51,108.19,29.42,108.18,29.33z"/>
		<path class="st8" d="M117.99,29.1c0.16-0.03,0.31-0.08,0.43-0.16c-0.13-0.06-0.27-0.1-0.41-0.12
			C118,28.92,117.99,29.01,117.99,29.1z"/>
		<path class="st8" d="M108.38,29.61l9.46-0.48c0.05,0,0.1-0.01,0.15-0.02c0.01-0.09,0.02-0.18,0.02-0.28
			c-0.06-0.01-0.12-0.01-0.18-0.01l-9.46,0.48c-0.06,0-0.12,0.01-0.18,0.03c0.01,0.09,0.03,0.18,0.05,0.27
			C108.28,29.6,108.33,29.61,108.38,29.61z"/>
		<path class="st8" d="M108.47,31.4c-0.22,0.01-0.42-0.04-0.6-0.12c-0.33,0.2-0.54,0.54-0.52,0.92c0.03,0.58,0.57,1.02,1.21,0.99
			l1.41-0.07c-0.46-0.49-0.86-1.07-1.17-1.73L108.47,31.4z"/>
		<path class="st8" d="M117.59,30.93c-0.24,0.69-0.58,1.31-0.99,1.84l1.41-0.07c0.63-0.03,1.13-0.53,1.1-1.11
			c-0.02-0.38-0.26-0.7-0.61-0.87c-0.17,0.1-0.37,0.17-0.58,0.18L117.59,30.93z"/>
		<path class="st8" d="M108.8,31.38c0.31,0.66,0.7,1.25,1.17,1.73l3.19-0.16c0-0.14-0.01-0.27,0-0.41l0.74,0.01
			c0,0.12,0,0.24,0,0.36l2.7-0.14c0.41-0.53,0.75-1.15,0.99-1.84L108.8,31.38z"/>
		<path class="st8" d="M113.9,32.55l-0.74-0.01c0,0.14,0,0.27,0,0.41l0.74-0.04C113.9,32.79,113.9,32.67,113.9,32.55z"/>
		<path class="st8" d="M117.69,30.62c-0.03,0.11-0.07,0.21-0.1,0.31l0.34-0.02c0.22-0.01,0.41-0.08,0.58-0.18
			c-0.18-0.09-0.38-0.13-0.6-0.12L117.69,30.62z"/>
		<path class="st8" d="M108.8,31.38c-0.05-0.1-0.09-0.2-0.13-0.3l-0.22,0.01c-0.22,0.01-0.41,0.08-0.58,0.18
			c0.18,0.09,0.38,0.13,0.6,0.12L108.8,31.38z"/>
		<path class="st8" d="M108.8,31.38l8.78-0.45c0.04-0.1,0.07-0.21,0.1-0.31l-9.02,0.46C108.71,31.18,108.76,31.28,108.8,31.38z"/>
		<polygon class="st1" points="110.85,11.68 110.17,11.71 110.23,12.94 110.91,12.91 		"/>
		<polygon class="st1" points="110.94,13.52 110.27,13.56 110.35,15.21 111.03,15.17 		"/>
		<path class="st1" d="M111.06,15.79l-0.68,0.03l0.07,1.48c0.21-0.14,0.43-0.26,0.66-0.36L111.06,15.79z"/>
		<path class="st1" d="M110.95,27.37l0.68-0.03l-0.13-2.54c-0.23-0.01-0.46-0.04-0.68-0.06L110.95,27.37z"/>
		<path class="st1" d="M110.45,17.3l0.37,7.43c0.23,0.03,0.45,0.05,0.68,0.06l-0.39-7.85C110.88,17.04,110.66,17.16,110.45,17.3z"/>
		<polygon class="st1" points="114.03,11.52 113.35,11.55 113.41,12.78 114.09,12.74 		"/>
		<path class="st1" d="M113.6,16.72c0.24,0.06,0.47,0.14,0.69,0.24l-0.07-1.33l-0.68,0.03L113.6,16.72z"/>
		<polygon class="st1" points="113.52,15.05 114.2,15.01 114.12,13.36 113.44,13.4 		"/>
		<path class="st1" d="M114.12,27.21l0.68-0.03l-0.13-2.59c-0.22,0.04-0.45,0.08-0.67,0.11L114.12,27.21z"/>
		<path class="st1" d="M113.6,16.72l0.39,7.97c0.23-0.03,0.45-0.07,0.67-0.11l-0.38-7.62C114.07,16.86,113.84,16.78,113.6,16.72z"/>
		<polygon class="st1" points="107.74,13.07 107.77,13.69 110.27,13.56 110.23,12.94 		"/>
		<polygon class="st1" points="116.15,13.26 116.12,12.64 114.09,12.74 114.12,13.36 		"/>
		<polygon class="st1" points="113.44,13.4 113.41,12.78 110.91,12.91 110.94,13.52 		"/>
		<polygon class="st1" points="110.91,12.91 110.23,12.94 110.27,13.56 110.94,13.52 		"/>
		<polygon class="st1" points="114.12,13.36 114.09,12.74 113.41,12.78 113.44,13.4 		"/>
		<polygon class="st1" points="113.52,15.05 111.03,15.17 111.06,15.79 113.55,15.66 		"/>
		<polygon class="st1" points="116.26,15.52 116.23,14.91 114.2,15.01 114.23,15.63 		"/>
		<polygon class="st1" points="107.86,15.34 107.89,15.95 110.38,15.83 110.35,15.21 		"/>
		<polygon class="st1" points="111.03,15.17 110.35,15.21 110.38,15.83 111.06,15.79 		"/>
		<polygon class="st1" points="113.55,15.66 114.23,15.63 114.2,15.01 113.52,15.05 		"/>
		<path class="st7" d="M109.76,10.58c3.01-0.44,5.28-1.86,5.06-3.17c-0.22-1.31-2.84-2.01-5.85-1.57c-3.01,0.44-5.28,1.86-5.06,3.17
			C104.13,10.32,106.74,11.03,109.76,10.58z M105.05,8.17c-0.13-0.81,1.26-1.68,3.12-1.96c1.86-0.27,3.47,0.16,3.6,0.97
			c0.13,0.81-1.26,1.68-3.12,1.96C106.79,9.41,105.18,8.98,105.05,8.17z"/>
		<path class="st9" d="M109.76,10.58c3.01-0.44,5.28-1.86,5.06-3.17c-0.22-1.31-2.84-2.01-5.85-1.57c-3.01,0.44-5.28,1.86-5.06,3.17
			C104.13,10.32,106.74,11.03,109.76,10.58z M105.05,8.17c-0.13-0.81,1.26-1.68,3.12-1.96c1.86-0.27,3.47,0.16,3.6,0.97
			c0.13,0.81-1.26,1.68-3.12,1.96C106.79,9.41,105.18,8.98,105.05,8.17z"/>
		<path class="st7" d="M111.77,7.18c-0.13-0.81-1.75-1.24-3.6-0.97c-1.86,0.27-3.25,1.15-3.12,1.96c0.13,0.81,1.75,1.24,3.6,0.97
			C110.51,8.86,111.91,7.99,111.77,7.18z"/>
		<path class="st9" d="M111.77,7.18c-0.13-0.81-1.75-1.24-3.6-0.97c-1.86,0.27-3.25,1.15-3.12,1.96c0.13,0.81,1.75,1.24,3.6,0.97
			C110.51,8.86,111.91,7.99,111.77,7.18z"/>
		<path class="st10" d="M111.77,7.18c-0.13-0.81-1.75-1.24-3.6-0.97c-1.86,0.27-3.25,1.15-3.12,1.96c0.13,0.81,1.75,1.24,3.6,0.97
			C110.51,8.86,111.91,7.99,111.77,7.18z"/>
		<polygon class="st11" points="51.41,42.39 49.18,43.42 51.89,43.26 		"/>
		<path class="st11" d="M56.33,43.68l-0.37,1.01c-1.07-0.11-2.14-0.02-3.15,0.23l-0.19-0.34c-1.66,0.86-3.01,2.24-3.68,3.87
			c-0.1,0.25-0.21,0.52-0.45,0.68c-0.2,0.13-0.46,0.14-0.7,0.16c-1.4,0.13-2.75,0.63-3.87,1.41l2.66,0.78
			c-0.13,0.98-0.05,1.94,0.22,2.86l-2.8,1.3l1.26,2.29l1.48-0.09l1.58-0.73c0.18,0.21,0.38,0.41,0.59,0.6l12.67-0.76
			c0.23-0.27,0.46-0.56,0.65-0.86l2.33,0.68l0.73-0.04l1-2.73l-2.97-0.87c0.13-0.98,0.05-1.94-0.22-2.86l2.8-1.3l-1.52-2.77
			l-2.8,1.3c-0.64-0.74-1.44-1.38-2.38-1.86l0.51-1.4c-0.93-0.36-1.93-0.56-2.94-0.59L56.33,43.68z M59.18,53.55
			c-0.78,2.13-3.32,3.3-5.65,2.61c-2.34-0.69-3.6-2.97-2.81-5.11c0.78-2.13,3.32-3.3,5.65-2.61C58.71,49.13,59.97,51.42,59.18,53.55
			z"/>
		<path class="st11" d="M59.72,44.25L60,43.46l-3.23,0.19C57.79,43.69,58.79,43.89,59.72,44.25z"/>
		<polygon class="st11" points="56.59,42.98 59.7,42.79 56.95,41.98 		"/>
		<path class="st11" d="M50.7,58.97l-1,2.71l3.24,0.96l1-2.71c1.07,0.11,2.14,0.02,3.15-0.23l1.39,2.53l3.06-1.42l-1.39-2.53
			c0.25-0.18,0.49-0.38,0.72-0.59l-11.18,0.67C50.02,58.57,50.35,58.78,50.7,58.97z"/>
		<path class="st11" d="M48.54,44.14l1.21,2.19c-0.82,0.59-1.53,1.33-2.07,2.18l-2.97-0.87l-1.09,2.96l0.31,0.09
			c1.12-0.78,2.47-1.28,3.87-1.41c0.24-0.02,0.5-0.04,0.7-0.16c0.24-0.15,0.34-0.43,0.45-0.68c0.67-1.63,2.01-3.01,3.68-3.87
			l-0.36-0.65L48.54,44.14z"/>
		<polygon class="st11" points="46.74,57.84 45.26,57.93 45.52,58.4 		"/>
		<path class="st11" d="M61.58,56.95l-12.67,0.76c0.25,0.23,0.51,0.44,0.79,0.64l11.18-0.67C61.13,57.45,61.37,57.21,61.58,56.95z"
			/>
		<path class="st11" d="M56.78,43.65c-0.15,0-0.29-0.01-0.44,0l-0.01,0.03L56.78,43.65z"/>
		<path class="st11" d="M56.34,43.65c0.15,0,0.29,0,0.44,0L60,43.46l0.19-0.52l-0.49-0.15l-3.12,0.19L56.34,43.65z"/>
		<polygon class="st11" points="48.54,44.14 52.26,43.92 51.89,43.26 49.18,43.42 48.35,43.8 		"/>
		<polygon class="st11" points="65.2,56.96 65.29,56.73 64.56,56.77 		"/>
		<path class="st11" d="M46.01,72.15l4.34-0.26l0.7-0.72l-1.85-1.49l-1.52,1.56c-0.66-0.34-1.39-0.57-2.17-0.67l-0.07-1.18
			c-0.79-0.3-1.66-0.44-2.52-0.42l0.1,1.75c-0.76,0.19-1.46,0.51-2.07,0.92l-1.7-1.37l-1.24,1.27c-0.12,0.17-0.22,0.34-0.32,0.51
			l1.59,1.28c-0.38,0.6-0.65,1.27-0.76,1.98l-2.27,0.14l0.13,2.26l2.27-0.14c0.07,0.23,0.15,0.45,0.25,0.66
			C39.54,74.95,42.42,72.37,46.01,72.15z"/>
		<path class="st11" d="M38.12,81.01l0.97,0.78c-0.15-0.47-0.25-0.97-0.3-1.48L38.12,81.01z"/>
		<path class="st11" d="M44.32,73.15c0.03,0,0.06-0.01,0.09-0.01c1.79-0.11,3.32,1.13,3.42,2.75c0.1,1.63-1.28,3.03-3.07,3.14
			s-3.32-1.13-3.42-2.75c-0.04-0.65,0.16-1.26,0.52-1.76c-1.37,1.17-2.26,2.85-2.37,4.71c0.05,0.07,0.1,0.15,0.16,0.22l-0.17,0.18
			c0,0.13,0,0.26,0.01,0.39c0.05,0.85,0.26,1.65,0.6,2.38l1.42-1.45c0.66,0.34,1.39,0.57,2.17,0.67l0.12,2.07l2.49-0.15l-0.12-2.07
			c0.76-0.19,1.46-0.51,2.07-0.92l1.7,1.37l1.66-1.7l-1.7-1.37c0.38-0.6,0.65-1.27,0.76-1.98l2.27-0.14l-0.13-2.26l-2.27,0.14
			c-0.2-0.69-0.54-1.32-0.99-1.87l0.11-0.11l-3.59,0.21C45.45,72.87,44.87,72.98,44.32,73.15z"/>
		<path class="st11" d="M42.89,68.65l0.02,0.32c0.86-0.03,1.73,0.12,2.52,0.42l-0.05-0.88L42.89,68.65z"/>
		<path class="st11" d="M37.59,71.98l0.1,0.08c0.1-0.18,0.2-0.35,0.32-0.51L37.59,71.98z"/>
		<path class="st11" d="M39.47,79.63l-0.67,0.69c0.05,0.51,0.15,1,0.3,1.48l0.88,0.71l0.1-0.1c-0.34-0.73-0.55-1.53-0.6-2.38
			C39.48,79.89,39.47,79.76,39.47,79.63z"/>
		<path class="st11" d="M46.01,72.15c-3.59,0.21-6.46,2.8-7.1,6.09c0.16,0.35,0.35,0.68,0.58,0.99c0.11-1.86,1-3.54,2.37-4.71
			c0.53-0.75,1.42-1.28,2.46-1.37c0.55-0.17,1.13-0.28,1.73-0.32l3.59-0.21l0.71-0.73L46.01,72.15z"/>
		<path class="st11" d="M101.19,68.69l0.32-0.44c-0.16,0.12-0.32,0.23-0.49,0.34L101.19,68.69z"/>
		<path class="st11" d="M103.47,58.08l-0.24,0.05c0.14,0.2,0.27,0.41,0.39,0.62L103.47,58.08z"/>
		<path class="st11" d="M94.22,71.77l-0.95-0.17c0.12-0.53,0.15-1.06,0.09-1.59l-0.62,0.04l0.48,2.15l3.35-0.65l-0.38-1.71
			l-1.87,0.11C94.39,70.56,94.36,71.17,94.22,71.77z"/>
		<polygon class="st11" points="84.11,54.83 83.53,55.64 85.3,55.54 		"/>
		<polygon class="st11" points="87.78,71.29 88.5,70.3 86.33,70.43 		"/>
		<path class="st11" d="M96.42,54.87c1.04-0.06,2.05,0.08,2.98,0.4l0.98-1.35l-2.85-1.69l-1.73,2.39c-0.51-0.18-1.05-0.32-1.6-0.41
			c0.07,0.26,0.11,0.52,0.14,0.78L96.42,54.87z"/>
		<path class="st11" d="M85.68,64.11l0.02,0.03c0.06,0.08,0.14,0.19,0.2,0.21c0.06,0.03,0.24,0,0.37-0.02l0.04-0.01
			c1-0.15,2.02-0.1,2.98,0.14c-0.49-0.51-0.85-1.14-1.01-1.85c-0.49-2.19,1.08-4.35,3.49-4.82c2.42-0.47,4.77,0.93,5.26,3.12
			c0.49,2.19-1.08,4.35-3.49,4.82c-0.51,0.1-1.03,0.11-1.52,0.05c0.14,0.11,0.28,0.23,0.42,0.36c0.92,0.86,1.53,1.97,1.79,3.14
			l1.83-0.11l-0.09-0.39c0.99-0.39,1.88-0.95,2.62-1.63l1.76,1.05c0.99-0.56,1.83-1.35,2.43-2.29l-2.31-1.37
			c0.39-0.88,0.6-1.84,0.61-2.82l2.67-0.52c-0.18-1.09-0.64-2.08-1.28-2.92l-2.07,0.4c-0.42-0.9-1.03-1.69-1.76-2.36l0.33-0.46
			c-0.79-0.24-1.64-0.35-2.51-0.3l-9.44,0.56c-0.1,0.09-0.2,0.17-0.3,0.26l-0.37-0.22l-3.34,0.2l-0.79,1.09l2.61,1.55
			c-0.39,0.88-0.6,1.84-0.61,2.82l-1.31,0.25C84.01,62.5,84.98,63.21,85.68,64.11z"/>
		<path class="st11" d="M93.16,54.11C93,54.1,92.85,54.1,92.69,54.1l-0.34-1.53c-0.3-0.41-0.67-0.77-1.09-1.09l-2.55,0.49l0.62,2.78
			c-0.44,0.18-0.86,0.38-1.25,0.62l5.28-0.31C93.33,54.73,93.26,54.42,93.16,54.11z"/>
		<path class="st11" d="M89.51,68.9c0.79,0.28,1.64,0.45,2.51,0.5l1.23-0.07c-0.24-0.97-0.75-1.87-1.51-2.58
			c-1.34-1.26-3.37-1.86-5.28-1.57l-0.03,0.01c-0.26,0.04-0.61,0.1-0.95-0.05c-0.28-0.12-0.44-0.33-0.56-0.5l-0.02-0.03
			c-0.86-1.12-2.22-1.89-3.7-2.1l0.65,2.93l3.07-0.59c0.42,0.9,1.03,1.69,1.76,2.36l-1.73,2.39l0.35,0.21l3.74-0.22L89.51,68.9z"/>
		<path class="st11" d="M92.35,52.57l-0.28-1.25l-0.81,0.16C91.68,51.8,92.05,52.16,92.35,52.57z"/>
		<path class="st11" d="M93.37,55.06L94.33,55c-0.03-0.26-0.08-0.53-0.14-0.78c-0.34-0.05-0.68-0.09-1.03-0.1
			C93.26,54.42,93.33,54.73,93.37,55.06z"/>
		<path class="st11" d="M93.28,71.6l0.95,0.17c0.14-0.6,0.17-1.21,0.11-1.82l-0.96,0.06C93.42,70.54,93.4,71.08,93.28,71.6z"/>
		<path class="st11" d="M84.88,64.61l0.02,0.03c0.13,0.17,0.29,0.37,0.56,0.5c0.34,0.15,0.69,0.09,0.95,0.05l0.03-0.01
			c1.92-0.3,3.94,0.3,5.28,1.57c0.76,0.71,1.28,1.62,1.51,2.58l0.97-0.06c-0.26-1.17-0.87-2.28-1.79-3.14
			c-0.13-0.12-0.27-0.24-0.42-0.36c-1.06-0.13-2.03-0.6-2.73-1.32c-0.96-0.24-1.99-0.3-2.98-0.14l-0.04,0.01
			c-0.14,0.02-0.31,0.05-0.37,0.02c-0.05-0.02-0.13-0.13-0.2-0.21l-0.02-0.03c-0.69-0.9-1.66-1.6-2.76-2.04l-1.76,0.34l0.02,0.11
			C82.66,62.73,84.02,63.5,84.88,64.61z"/>
		<path class="st11" d="M102.78,65.9c-0.61,0.94-1.44,1.73-2.43,2.29l0.67,0.4c0.17-0.11,0.33-0.22,0.49-0.34l1.58-2.17L102.78,65.9
			z"/>
		<path class="st11" d="M96.46,55.56c0.88-0.05,1.72,0.06,2.51,0.3l0.42-0.59c-0.93-0.31-1.94-0.46-2.98-0.4L94.33,55
			c0.02,0.22,0.04,0.44,0.04,0.66l-0.97,0c0-0.2-0.01-0.4-0.04-0.6l-5.28,0.31c-0.38,0.23-0.73,0.48-1.06,0.75L96.46,55.56z"/>
		<path class="st11" d="M103.75,61.2l0.4-0.08l-0.53-2.37c-0.12-0.21-0.25-0.42-0.39-0.62l-0.76,0.15
			C103.12,59.11,103.57,60.11,103.75,61.2z"/>
		<polygon class="st11" points="86.35,56.16 85.3,55.54 83.53,55.64 83.01,56.36 		"/>
		<path class="st11" d="M93.25,69.33l-1.23,0.07c0.19,0.01,0.39,0.02,0.58,0.02l0.14,0.63l0.62-0.04
			C93.34,69.78,93.3,69.56,93.25,69.33z"/>
		<path class="st11" d="M94.22,69.28c0.05,0.22,0.09,0.45,0.11,0.68l1.87-0.11l-0.15-0.68L94.22,69.28z"/>
		<polygon class="st11" points="85.28,69.81 86.33,70.43 88.5,70.3 89.02,69.59 		"/>
		<path class="st11" d="M93.4,55.66l0.97,0c0-0.22-0.01-0.44-0.04-0.66l-0.96,0.06C93.39,55.26,93.4,55.46,93.4,55.66z"/>
		<path class="st11" d="M93.37,70.01l0.96-0.06c-0.02-0.23-0.06-0.45-0.11-0.68l-0.97,0.06C93.3,69.56,93.34,69.78,93.37,70.01z"/>
		<path class="st12" d="M63.43,65.83c0.24,0.51,0.58,0.95,0.99,1.33l-0.98,1.35l1.61,0.95l0.98-1.35c0.55,0.19,1.14,0.3,1.75,0.29
			l0.35,1.57l1.89-0.37l-0.35-1.57c0.56-0.22,1.06-0.54,1.48-0.92l1.47,0.87l1.07-1.47l-1.47-0.87c0.22-0.5,0.34-1.04,0.34-1.59
			l1.73-0.34l-0.38-1.71l-1.73,0.34c-0.24-0.51-0.58-0.95-0.99-1.33l0.98-1.35l-1.61-0.95l-0.98,1.35c-0.55-0.19-1.14-0.3-1.75-0.29
			l-0.35-1.57l-1.89,0.37l0.35,1.57c-0.56,0.22-1.06,0.54-1.48,0.92l-1.47-0.87l-1.07,1.47l1.47,0.87c-0.22,0.5-0.34,1.04-0.34,1.59
			l-1.73,0.34l0.38,1.71L63.43,65.83z M67.3,61.85c1.36-0.26,2.69,0.52,2.97,1.76c0.28,1.24-0.61,2.45-1.97,2.72
			c-1.36,0.26-2.69-0.52-2.97-1.76C65.06,63.33,65.94,62.12,67.3,61.85z"/>
		<path class="st12" d="M81.83,49.27c-0.1,0.76-0.73,1.42-1.6,1.59c-1.09,0.21-2.15-0.42-2.37-1.41c-0.02-0.07-0.03-0.15-0.03-0.22
			c-0.86,0.29-1.64,0.76-2.26,1.38l0.77-0.15c0.19,0.41,0.46,0.76,0.8,1.06l-0.78,1.08l1.29,0.76l0.78-1.08
			c0.44,0.16,0.91,0.24,1.4,0.24l0.28,1.25l1.51-0.29l-0.28-1.25c0.45-0.18,0.85-0.43,1.18-0.74l1.18,0.7l0.85-1.18l-1.18-0.7
			c0.03-0.06,0.05-0.12,0.07-0.18C82.96,49.77,82.41,49.47,81.83,49.27z"/>
		<path class="st12" d="M79.43,47.28c0.94-0.18,1.85,0.26,2.23,1.01c0.7,0.19,1.37,0.49,1.97,0.87c0-0.04,0.01-0.08,0.01-0.11
			l1.38-0.27l-0.31-1.37l-1.38,0.27c-0.19-0.41-0.46-0.76-0.8-1.06l0.78-1.08l-1.29-0.76l-0.78,1.08c-0.44-0.16-0.91-0.24-1.4-0.23
			l-0.28-1.25l-1.51,0.29l0.28,1.25c-0.45,0.18-0.85,0.43-1.18,0.74l-1.18-0.7l-0.85,1.18l1.18,0.7c-0.18,0.4-0.27,0.83-0.27,1.27
			l-1.38,0.27l0.16,0.72c0.86-0.87,2-1.51,3.24-1.83C78.31,47.77,78.81,47.4,79.43,47.28z"/>
		<path class="st12" d="M78.04,48.25c-1.24,0.31-2.38,0.96-3.24,1.83l0.15,0.65l0.62-0.12c0.62-0.61,1.4-1.09,2.26-1.38
			C77.79,48.88,77.87,48.55,78.04,48.25z"/>
		<path class="st12" d="M81.66,48.29c0.06,0.12,0.11,0.26,0.14,0.4c0.04,0.2,0.05,0.39,0.02,0.58c0.58,0.21,1.13,0.5,1.6,0.87
			c0.12-0.31,0.18-0.64,0.2-0.98C83.03,48.77,82.37,48.48,81.66,48.29z"/>
		<path class="st11" d="M66.83,77.74l-0.31-1.37l-1.38,0.27c-0.19-0.41-0.46-0.76-0.8-1.06l0.78-1.08l-1.29-0.76l-0.78,1.08
			c-0.44-0.16-0.91-0.24-1.4-0.24l-0.28-1.25l-1.51,0.29l0.28,1.25c-0.45,0.18-0.85,0.43-1.18,0.74l-1.18-0.7l-0.85,1.18l1.18,0.7
			c-0.18,0.4-0.27,0.83-0.27,1.27l-1.38,0.27l0.31,1.37l1.38-0.27c0.19,0.41,0.46,0.76,0.8,1.06l-0.78,1.08l1.29,0.76l0.78-1.08
			c0.44,0.16,0.91,0.24,1.4,0.23l0.28,1.25l1.51-0.29l-0.28-1.25c0.45-0.18,0.85-0.43,1.18-0.74l1.18,0.7l0.85-1.18l-1.18-0.7
			c0.18-0.4,0.27-0.83,0.27-1.27L66.83,77.74z M62.04,79.82c-1.09,0.21-2.15-0.42-2.37-1.41c-0.22-0.99,0.49-1.96,1.58-2.17
			c1.09-0.21,2.15,0.42,2.37,1.41C63.84,78.64,63.13,79.61,62.04,79.82z"/>
		<path class="st12" d="M87.25,77.31l-0.31-1.37l-1.38,0.27c-0.19-0.41-0.46-0.76-0.8-1.06l0.78-1.08l-1.29-0.76l-0.78,1.08
			c-0.44-0.16-0.91-0.24-1.4-0.24l-0.28-1.25l-1.51,0.29l0.28,1.25c-0.45,0.18-0.85,0.43-1.18,0.74l-1.18-0.7l-0.85,1.18l1.18,0.7
			c-0.18,0.4-0.27,0.83-0.27,1.27l-1.38,0.27l0.31,1.37l1.38-0.27c0.19,0.41,0.46,0.76,0.8,1.06l-0.78,1.08l1.29,0.76l0.78-1.08
			c0.44,0.16,0.91,0.24,1.4,0.23l0.28,1.25l1.51-0.29l-0.28-1.25c0.45-0.18,0.85-0.43,1.18-0.74l1.18,0.7l0.85-1.18l-1.18-0.7
			c0.18-0.4,0.27-0.83,0.27-1.27L87.25,77.31z M82.46,79.39c-1.09,0.21-2.15-0.42-2.37-1.41c-0.22-0.99,0.49-1.96,1.58-2.17
			c1.09-0.21,2.15,0.42,2.37,1.41C84.26,78.2,83.55,79.18,82.46,79.39z"/>
		<path class="st4" d="M24.17,102l5.62-0.34c0-0.16,0-0.33-0.01-0.5c-0.26-4.36-4.37-7.67-9.17-7.38l0.94,15.8
			c4.36-0.26,7.8-3.39,8.2-7.24l-5.54,0.33L24.17,102z M21.79,95.31c0.66,0.18,1.27,0.44,1.87,0.75c0.59,0.3,1.15,0.66,1.68,1.05
			c0.53,0.39,1.01,0.84,1.44,1.32c0.43,0.49,0.78,1.03,1.03,1.61c-0.45-0.47-0.89-0.91-1.36-1.33c-0.48-0.41-0.96-0.82-1.48-1.2
			c-0.51-0.38-1.03-0.75-1.56-1.12L21.79,95.31z"/>
		<path class="st4" d="M24.17,102l0.04,0.68l5.54-0.33c0.02-0.23,0.04-0.46,0.04-0.69L24.17,102z"/>
		<path class="st11" d="M20.51,92.1l-3.87,0.23l0.34,5.78l0.27-0.02c0.48-0.03,0.9,0.31,0.92,0.74l0.01,0.11
			c0.03,0.44-0.35,0.82-0.83,0.85l-0.27,0.02l0.25,4.21l0.27-0.02c0.48-0.03,0.9,0.31,0.92,0.74l0.01,0.11
			c0.03,0.44-0.35,0.82-0.83,0.85l-0.27,0.02l0.34,5.78l3.87-0.23l-0.1-1.68l-0.94-15.8L20.51,92.1z"/>
		<path class="st11" d="M8.84,98.6c-0.48,0.03-0.85,0.41-0.83,0.85l0.01,0.11c0.03,0.44,0.44,0.77,0.92,0.74l8.14-0.49l-0.1-1.7
			L8.84,98.6z"/>
		<path class="st11" d="M18.18,98.95l-0.01-0.11c-0.03-0.44-0.44-0.77-0.92-0.74l-0.27,0.02l0.1,1.7l0.27-0.02
			C17.83,99.77,18.21,99.39,18.18,98.95z"/>
		<path class="st11" d="M9.19,104.51c-0.48,0.03-0.85,0.41-0.83,0.85l0.01,0.11c0.03,0.44,0.44,0.77,0.92,0.74l8.14-0.49l-0.1-1.7
			L9.19,104.51z"/>
		<path class="st11" d="M18.53,104.86l-0.01-0.11c-0.03-0.44-0.44-0.77-0.92-0.74l-0.27,0.02l0.1,1.7l0.27-0.02
			C18.19,105.68,18.56,105.3,18.53,104.86z"/>
		<path class="st4" d="M26.44,98.71c0.47,0.42,0.91,0.87,1.36,1.33c-0.24-0.58-0.6-1.12-1.03-1.61c-0.43-0.48-0.91-0.93-1.44-1.32
			c-0.53-0.39-1.09-0.75-1.68-1.05c-0.59-0.3-1.21-0.57-1.87-0.75l1.62,1.09c0.53,0.37,1.05,0.73,1.56,1.12
			C25.48,97.89,25.96,98.3,26.44,98.71z"/>
		<path class="st13" d="M26.44,98.71c0.47,0.42,0.91,0.87,1.36,1.33c-0.24-0.58-0.6-1.12-1.03-1.61c-0.43-0.48-0.91-0.93-1.44-1.32
			c-0.53-0.39-1.09-0.75-1.68-1.05c-0.59-0.3-1.21-0.57-1.87-0.75l1.62,1.09c0.53,0.37,1.05,0.73,1.56,1.12
			C25.48,97.89,25.96,98.3,26.44,98.71z"/>
	</g>
	<g>
		<path class="st4" d="M954.62,58.43l1.6,0.78l-2.21-0.19C954.22,58.83,954.43,58.63,954.62,58.43z"/>
		<path class="st4" d="M958.49,48.93l-3.04,0.81c-0.54-0.88-1.25-1.64-2.07-2.26l1.27-2.19l4.26,0.36c3.91,0.33,6.85,3.67,6.55,7.44
			c-0.18,2.25-1.47,4.16-3.32,5.26c0.19-1.63-0.26-3.33-1.28-4.71c-0.45-0.61-1.01-1.14-1.64-1.6l0.32-0.08L958.49,48.93z"/>
		<path class="st4" d="M960.86,53.64c1.02,1.38,1.47,3.08,1.28,4.71c-1.24,0.74-2.74,1.12-4.32,0.99l-0.1-0.01l1.33-2.29l-2.83-1.38
			c0.29-0.92,0.39-1.9,0.28-2.89l2.72-0.73C959.85,52.5,960.41,53.04,960.86,53.64z"/>
		<path class="st4" d="M940.47,57.05c0.19,0.31,0.41,0.61,0.65,0.89l-3.03-0.25L940.47,57.05z"/>
		<path class="st4" d="M942.98,44.31l-30.6-2.57c-0.21,0.35-0.4,0.72-0.56,1.1c-0.91-0.36-1.9-0.6-2.95-0.69
			c-5.2-0.44-9.72,3.01-10.09,7.71c-0.08,1.04,0.05,2.06,0.36,3.02c-4.29,0.48-7.73,3.61-8.05,7.68c-0.16,2.01,0.47,3.92,1.65,5.49
			c-2.59,1.56-4.38,4.13-4.62,7.16c-0.42,5.28,4.02,10,9.87,10.49l2.64,0.22c0.83-0.2,1.7-0.28,2.6-0.21l52.31,4.39
			c3.02,0.25,5.76-1.37,6.98-3.86l-1.42-1.51c-0.68,0.33-1.43,0.55-2.22,0.63l-0.17,2.09l-2.53-0.21l0.17-2.09
			c-0.77-0.21-1.48-0.55-2.09-0.99l-1.75,1.34l-1.66-1.77l1.75-1.34c-0.38-0.62-0.64-1.3-0.74-2.02l-2.31-0.19l0.18-2.29l2.31,0.19
			c0.22-0.69,0.58-1.32,1.05-1.87l-0.11-0.11l-37.35-3.14l-1.49,0.83l-0.71-1.02l-4.33-0.36l-0.53,2.17l-3.41-0.74l0.42-1.72
			l-1.4-0.12l0-0.01c-1.28-0.15-2.47-0.6-3.48-1.27l-0.18,0.1l-0.31-0.45c-1.98-1.53-3.17-3.94-2.97-6.54
			c0.09-1.14,0.44-2.2,0.99-3.14l0.17-0.68l0.25,0.05c0.97-1.31,2.35-2.3,3.96-2.8l-0.97-1.39l2.94-1.64l1.72,2.46
			c0.53-0.17,1.08-0.3,1.64-0.37c0.42-1.52,1.46-2.88,2.91-3.73c1.9-1.13,4.41-1.33,6.55-0.54l0.03,0.01
			c0.13,0.05,0.3,0.11,0.37,0.1c0.06-0.01,0.16-0.1,0.24-0.17l0.03-0.02c0.22-0.18,0.46-0.35,0.71-0.5c0-0.04-0.01-0.08,0-0.12
			l-1.4-0.31l0.34-1.38l1.4,0.31c0.2-0.41,0.49-0.76,0.83-1.06l-0.78-1.11l1.33-0.74l0.78,1.11c0.45-0.15,0.93-0.22,1.43-0.2
			l0.31-1.26l1.54,0.34l-0.31,1.26c0.45,0.19,0.85,0.46,1.19,0.77l1.21-0.68l0.85,1.21l-1.21,0.68c0.17,0.41,0.26,0.85,0.26,1.3
			l1.4,0.31l-0.18,0.72c0.19,0.19,0.36,0.4,0.52,0.61l-0.82,0.48c-0.15-0.2-0.31-0.39-0.49-0.57l-0.78-0.17
			c-0.2,0.41-0.49,0.76-0.83,1.06l0.78,1.11l-1.33,0.74l-0.78-1.11c-0.45,0.15-0.93,0.22-1.43,0.2l-0.31,1.26l-1.54-0.34l0.31-1.26
			c-0.45-0.19-0.85-0.46-1.19-0.77l-1.21,0.68l-0.85-1.21l1.21-0.68c-0.03-0.06-0.05-0.12-0.07-0.19c-0.08,0.06-0.15,0.11-0.22,0.17
			l-0.03,0.02c-0.17,0.14-0.37,0.31-0.68,0.37c-0.37,0.08-0.72-0.05-0.96-0.14l-0.03-0.01c-1.84-0.68-4.01-0.51-5.65,0.46
			c-0.15,0.09-0.29,0.19-0.44,0.29l2.58,0.56l-0.68,2.8c0.45,0.19,0.87,0.41,1.26,0.66l2.84,0.24l1.22-0.68l0.58,0.83l18.57,1.56
			l-0.97-2.79l3.04-0.81c-0.11-0.99-0.01-1.97,0.28-2.89l-2.83-1.38l1.61-2.77l2.83,1.38c0.67-0.73,1.5-1.36,2.46-1.82l-0.5-1.43
			c-0.75,0.27-1.45,0.64-2.07,1.1c0.62-0.46,1.32-0.83,2.07-1.1L942.98,44.31z M937.03,80.46c-0.17-0.41-0.26-0.85-0.26-1.3
			l-1.4-0.31l0.34-1.38l1.4,0.31c0.2-0.41,0.49-0.76,0.83-1.06l-0.78-1.11l1.33-0.74l0.78,1.11c0.45-0.15,0.93-0.22,1.43-0.2
			l0.31-1.26l1.54,0.34l-0.31,1.26c0.45,0.19,0.85,0.46,1.19,0.77l1.21-0.68l0.85,1.21l-1.21,0.68c0.17,0.41,0.26,0.85,0.26,1.3
			l1.4,0.31l-0.34,1.38l-1.4-0.31c-0.2,0.41-0.49,0.76-0.83,1.06l0.78,1.11l-1.33,0.74l-0.78-1.11c-0.45,0.15-0.93,0.22-1.43,0.2
			l-0.31,1.26l-1.54-0.34l0.31-1.26c-0.45-0.19-0.85-0.46-1.19-0.77l-1.21,0.68l-0.85-1.21L937.03,80.46z M916.23,79.51
			c-0.17-0.41-0.26-0.85-0.26-1.3l-1.4-0.31l0.34-1.38l1.4,0.31c0.2-0.41,0.49-0.76,0.83-1.06l-0.78-1.11l1.33-0.74l0.78,1.11
			c0.45-0.15,0.93-0.22,1.43-0.2l0.31-1.26l1.54,0.34l-0.31,1.26c0.45,0.19,0.85,0.46,1.19,0.77l1.21-0.68l0.85,1.21l-1.21,0.68
			c0.17,0.41,0.26,0.85,0.26,1.3l1.4,0.31l-0.34,1.38l-1.4-0.31c-0.2,0.41-0.49,0.76-0.83,1.06l0.78,1.11l-1.33,0.74l-0.78-1.11
			c-0.45,0.15-0.93,0.22-1.43,0.2l-0.31,1.26l-1.54-0.34l0.31-1.26c-0.45-0.19-0.85-0.46-1.19-0.77l-1.21,0.68l-0.85-1.21
			L916.23,79.51z M897.43,68.2c-0.68-0.05-1.32,0.33-1.69,0.84s-0.5,1.13-0.56,1.74c-0.21,2.49,0.91,5.07,2.95,6.8
			c2.04,1.73,4.96,2.56,7.69,2.2c-2.73,0.36-5.65-0.48-7.69-2.2c-2.04-1.73-3.16-4.31-2.95-6.8c0.05-0.61,0.19-1.23,0.56-1.74
			S896.75,68.15,897.43,68.2z"/>
		<path class="st4" d="M947.9,44.72l2.97,0.25l-0.38,0.65c-0.59-0.32-1.23-0.58-1.89-0.75C948.36,44.81,948.13,44.77,947.9,44.72z"
			/>
		<path class="st4" d="M920.29,76.53c1.11,0.24,1.81,1.24,1.56,2.24c-0.24,1-1.34,1.61-2.45,1.37c-1.11-0.24-1.81-1.24-1.56-2.24
			C918.09,76.9,919.19,76.29,920.29,76.53z"/>
		<path class="st4" d="M941.09,77.48c1.11,0.24,1.81,1.24,1.56,2.24c-0.24,1-1.34,1.61-2.45,1.37c-1.11-0.24-1.81-1.24-1.56-2.24
			C938.89,77.85,939.98,77.24,941.09,77.48z"/>
		<path class="st4" d="M934.09,67.26c-1.38-0.3-2.26-1.56-1.95-2.8c0.3-1.24,1.67-2.01,3.06-1.71c1.38,0.3,2.26,1.56,1.95,2.8
			C936.84,66.8,935.47,67.56,934.09,67.26z"/>
		<path class="st4" d="M946.59,49.45c2.4-0.64,4.95,0.61,5.71,2.79c0.76,2.18-0.57,4.46-2.96,5.1c-2.39,0.64-4.95-0.61-5.71-2.79
			C942.86,52.37,944.19,50.09,946.59,49.45z"/>
		<path class="st4" d="M957.58,88.7l5.16,0.43l8.87,7.79l-1.01-7.56c4.43-0.85,7.9-4.24,8.24-8.54c0.27-3.42-1.5-6.6-4.37-8.55
			c1.64-1.38,2.72-3.31,2.9-5.51c0.37-4.69-3.54-8.85-8.75-9.29c-0.39-0.03-0.77-0.04-1.15-0.03c0.82-1.14,1.34-2.49,1.46-3.96
			c0.37-4.69-3.54-8.85-8.75-9.29c-0.77-0.07-1.53-0.04-2.27,0.06c-1.31-2.94-4.37-5.15-8.08-5.46c-2.9-0.24-5.58,0.72-7.45,2.43
			c-1.54-2.29-4.22-3.93-7.37-4.19c-3.11-0.26-5.97,0.87-7.85,2.82c-1.53-1.33-3.54-2.22-5.8-2.41c-3.52-0.3-6.73,1.19-8.55,3.65
			l30.49,2.56l2.82-0.75l0.35,1.02l4.77,0.4l0.51-0.87l2.26,1.1l4.95,0.42c4.3,0.36,7.54,4.04,7.21,8.19
			c-0.21,2.7-1.88,4.95-4.21,6.09c-0.02,0.06-0.03,0.13-0.05,0.19c0.02-0.06,0.04-0.13,0.05-0.19c-1.17,0.58-2.51,0.87-3.92,0.8
			l0,0.01l-4.86-0.41c-0.32,0.22-0.66,0.43-1.03,0.6l0.96,2.76l-3.32,0.89l-0.96-2.76c-1.09,0.08-2.18-0.03-3.2-0.31l-1.47,2.53
			l-3.1-1.51l1.47-2.53c-0.25-0.19-0.49-0.4-0.72-0.62L919.3,56.8l0.78,1.12l-2.69,1.5c0.38,0.91,0.58,1.88,0.57,2.87l1.33,0.29
			c0.66-0.24,1.35-0.39,2.07-0.43c1.94-0.11,3.93,0.59,5.31,1.86l-0.69,0.62c-1.18-1.09-2.87-1.68-4.54-1.59
			c-0.13,0.01-0.26,0.02-0.39,0.03l-0.72,2.96l-3.11-0.68c-0.45,0.9-1.08,1.69-1.84,2.35l1.72,2.46l-0.36,0.2l35.56,2.99l-0.7-0.75
			l1.92-1.47l1.52,1.62c0.68-0.33,1.43-0.55,2.22-0.63l0.09-1.2c-0.7,0.24-1.36,0.6-1.91,1.07l-0.68-0.66
			c1.66-1.4,4.09-1.98,6.34-1.51c2.25,0.47,4.2,1.96,5.09,3.88l0.01,0.03c0.06,0.12,0.12,0.27,0.19,0.3
			c0.05,0.03,0.19,0.04,0.31,0.05l0.04,0c1.95,0.12,3.83,1.05,5.01,2.46c1.19,1.42,1.66,3.29,1.25,5.01l-0.96-0.2
			c0.35-1.47-0.05-3.07-1.07-4.28c-1.01-1.21-2.62-2-4.28-2.11l-0.04,0c-0.23-0.01-0.51-0.03-0.78-0.19
			c-0.33-0.19-0.47-0.5-0.57-0.72l-0.01-0.03c-0.03-0.07-0.07-0.14-0.1-0.21l-1.65,1.26c0.38,0.62,0.64,1.3,0.74,2.02l2.31,0.19
			l-0.18,2.29l-2.31-0.19c-0.07,0.23-0.16,0.45-0.27,0.66c0.11,0.6,0.14,1.22,0.09,1.85c-0.01,0.09-0.02,0.17-0.03,0.25l0.68,0.72
			l-1.01,0.77C962.67,86.27,960.37,88.21,957.58,88.7z M941.24,65.54l-0.42,1.73l-1.75-0.38c-0.25,0.51-0.61,0.95-1.04,1.32
			l0.97,1.39l-1.66,0.92l-0.97-1.39c-0.56,0.18-1.16,0.27-1.78,0.25l-0.39,1.58l-1.92-0.42l0.39-1.58
			c-0.57-0.24-1.07-0.57-1.49-0.97l-1.51,0.85l-1.06-1.52l1.51-0.85c-0.21-0.51-0.33-1.06-0.32-1.62l-1.75-0.38l0.42-1.73l1.75,0.38
			c0.25-0.51,0.61-0.95,1.04-1.32l-0.97-1.39l1.66-0.92l0.97,1.39c0.56-0.18,1.16-0.27,1.78-0.25l0.39-1.58l1.92,0.42l-0.39,1.58
			c0.57,0.24,1.07,0.57,1.49,0.97l1.51-0.85l1.06,1.52l-1.51,0.85c0.21,0.51,0.33,1.06,0.32,1.62L941.24,65.54z"/>
		<path class="st4" d="M948.59,44.87c0.66,0.18,1.3,0.43,1.89,0.75l-0.2,0.34c-1.02-0.28-2.11-0.4-3.2-0.31l-0.36-1.03l1.17,0.1
			C948.13,44.77,948.36,44.81,948.59,44.87z"/>
		<path class="st4" d="M957.83,80.73c-1.82-0.15-3.2-1.61-3.07-3.26c0.13-1.65,1.71-2.86,3.54-2.7c0.03,0,0.06,0.01,0.09,0.01
			c0.93,0.32,1.77,0.82,2.48,1.45c0.36,0.52,0.54,1.15,0.49,1.8C961.24,79.67,959.65,80.88,957.83,80.73z"/>
		<path class="st4" d="M960.88,70.7c1.64,0.34,3.09,1.31,3.97,2.61l-1.24-1.32l-1.75,1.34c-0.62-0.44-1.32-0.78-2.09-0.99l0.14-1.77
			C960.23,70.59,960.56,70.63,960.88,70.7z"/>
		<path class="st4" d="M963.03,81.27c0.06-0.07,0.11-0.14,0.17-0.22c0.01,0.13,0.01,0.27,0.01,0.4L963.03,81.27z"/>
		<path class="st4" d="M923.11,47.69c0.63,0.14,1.13,0.53,1.4,1.02c-0.34-0.1-0.69-0.17-1.05-0.21c-0.89-0.11-1.79-0.05-2.64,0.16
			C921.22,47.9,922.16,47.48,923.11,47.69z"/>
		<path class="st4" d="M923.35,49.38c0.47,0.06,0.93,0.17,1.36,0.33c-0.01,0.07-0.02,0.15-0.04,0.22c-0.24,1-1.34,1.61-2.45,1.37
			c-0.89-0.19-1.51-0.88-1.6-1.65C921.49,49.36,922.43,49.27,923.35,49.38z"/>
		<path class="st4" d="M915.21,56.46l0.69,0.06l-0.38,0.21C915.41,56.64,915.31,56.55,915.21,56.46z"/>
		<path class="st4" d="M909.47,54.27c-0.16,0-0.31,0-0.47,0c0.19-0.55,0.48-1.07,0.85-1.54L909.47,54.27z"/>
		<path class="st4" d="M901.53,58.71l-2.1-0.46c0.91-1.13,2.17-1.96,3.61-2.36l0.33,0.47C902.61,57.02,901.97,57.81,901.53,58.71z"
			/>
		<path class="st4" d="M901.34,64.64l-2.38,1.33c-0.74-1.19-1.11-2.59-1-4.07c0.02-0.24,0.05-0.48,0.1-0.72l2.71,0.59
			C900.76,62.76,900.96,63.74,901.34,64.64z"/>
		<path class="st4" d="M912.92,70.05l-3.06-0.26c0.89-0.03,1.76-0.18,2.57-0.45L912.92,70.05z"/>
		<path class="st4" d="M905.86,69.05l-0.1,0.4l-1.24-0.1c-1.14-0.1-2.2-0.45-3.12-0.99l1.82-1.01
			C903.96,68.04,904.85,68.62,905.86,69.05z"/>
		<path class="st4" d="M908.39,66.03c-2.45-0.54-4-2.76-3.47-4.97c0.54-2.21,2.97-3.56,5.42-3.03c2.45,0.54,4,2.76,3.47,4.97
			c-0.18,0.72-0.55,1.35-1.07,1.85c-1.03,0.23-1.99,0.66-2.81,1.27C909.43,66.16,908.91,66.14,908.39,66.03z"/>
		<path class="st6" d="M923.46,48.5c0.36,0.04,0.71,0.12,1.05,0.21c0.16,0.3,0.24,0.65,0.2,1c-0.44-0.16-0.9-0.27-1.36-0.33
			c-0.92-0.11-1.86-0.02-2.72,0.26c-0.02-0.19-0.01-0.39,0.04-0.59c0.03-0.14,0.09-0.27,0.15-0.4
			C921.68,48.45,922.58,48.39,923.46,48.5z"/>
		<path class="st6" d="M927.78,50.64c0.19,0.19,0.36,0.4,0.52,0.61l-0.82,0.48c-0.15-0.2-0.31-0.39-0.49-0.57l0.63,0.14
			L927.78,50.64z"/>
		<path class="st6" d="M909.85,52.73c-0.37,0.47-0.65,0.99-0.85,1.54c-0.36,0.01-0.71,0.03-1.05,0.08c0.42-1.52,1.46-2.88,2.91-3.73
			c1.9-1.13,4.41-1.33,6.55-0.54l0.03,0.01c0.13,0.05,0.3,0.11,0.37,0.1c0.06-0.01,0.16-0.1,0.24-0.17l0.03-0.02
			c0.22-0.18,0.46-0.35,0.71-0.5c0.01,0.34,0.07,0.67,0.18,0.99c-0.08,0.06-0.15,0.11-0.22,0.17l-0.03,0.02
			c-0.17,0.14-0.37,0.31-0.68,0.37c-0.37,0.08-0.72-0.05-0.96-0.14l-0.03-0.01c-1.84-0.68-4.01-0.51-5.65,0.46
			c-0.15,0.09-0.29,0.19-0.44,0.29l-0.82-0.18L909.85,52.73z"/>
		<path class="st6" d="M909.93,66.12c0.81-0.61,1.78-1.04,2.81-1.27C912.02,65.56,911.02,66.01,909.93,66.12z"/>
		<path class="st6" d="M919.29,62.58c0.66-0.24,1.35-0.39,2.07-0.43c1.94-0.11,3.93,0.59,5.31,1.86l-0.69,0.62
			c-1.18-1.09-2.87-1.68-4.54-1.59c-0.13,0.01-0.26,0.02-0.39,0.03l0.03-0.11L919.29,62.58z"/>
		<path class="st6" d="M964.85,73.31c-0.88-1.3-2.33-2.27-3.97-2.61c-0.32-0.07-0.65-0.11-0.98-0.12l0.03-0.32l-2.53-0.21
			l-0.07,0.89c-0.7,0.24-1.36,0.6-1.91,1.07l-0.68-0.66c1.66-1.4,4.09-1.98,6.34-1.51c2.25,0.47,4.2,1.96,5.09,3.88l0.01,0.03
			c0.06,0.12,0.12,0.27,0.19,0.3c0.05,0.03,0.19,0.04,0.31,0.05l0.04,0c1.95,0.12,3.83,1.05,5.01,2.46
			c1.19,1.42,1.66,3.29,1.25,5.01l-0.96-0.2c0.35-1.47-0.05-3.07-1.07-4.28c-1.01-1.21-2.62-2-4.28-2.11l-0.04,0
			c-0.23-0.01-0.51-0.03-0.78-0.19c-0.33-0.19-0.47-0.5-0.57-0.72l-0.01-0.03c-0.03-0.07-0.07-0.14-0.1-0.21l0.11-0.08L964.85,73.31
			z"/>
		<path class="st1" d="M888.86,34c-0.03,0.26-0.07,0.53-0.1,0.79c-0.18,1.68-0.04,3.8,1.66,4.32c0.5,0.16,1.03,0.19,1.6,0.23
			c0.15,0.01,0.3,0.02,0.45,0.03l0-0.01l14.06,1.18l0.03,0l6.27,0.53c-0.16,0.21-0.3,0.43-0.44,0.66l-5.91-0.5l0,0l-13.77-1.16l0,0
			c-0.04-0.01-0.09-0.01-0.13-0.01l-0.15-0.01l0,0c-0.14-0.01-0.29-0.02-0.43-0.03c-0.15-0.01-0.29-0.02-0.44-0.03
			c-0.45-0.04-0.9-0.1-1.35-0.23c-1.72-0.53-2.47-2.28-2.17-5.05c0.03-0.28,0.07-0.55,0.1-0.83c0.22,0.06,0.44,0.09,0.67,0.11
			C888.81,34,888.83,34,888.86,34z"/>
		<path class="st1" d="M955.63,88.8L955.63,88.8l-52.45-4.4c-3.91-0.33-7.34,2.48-7.63,6.25c-0.3,3.77,2.64,7.11,6.55,7.44
			l70.54,5.93c0,0.23,0.01,0.47,0.02,0.7l-70.69-5.94l0,0c-4.27-0.39-7.47-4.05-7.14-8.18c0.26-3.29,2.67-5.9,5.8-6.67l56.94,4.78
			C956.95,88.81,956.3,88.85,955.63,88.8z"/>
		<path class="st1" d="M947.9,44.72l-1.17-0.1l-0.01-0.03C947.11,44.61,947.51,44.66,947.9,44.72z"/>
		<path class="st1" d="M947.9,44.72c-0.39-0.07-0.79-0.11-1.19-0.13l-0.24-0.68l4.77,0.4l-0.38,0.66L947.9,44.72z"/>
		<path class="st1" d="M899.43,58.25l-0.77-0.17c0.97-1.31,2.35-2.3,3.96-2.8l0.42,0.6C901.6,56.29,900.34,57.12,899.43,58.25z"/>
		<path class="st1" d="M904.52,69.34l1.24,0.1l-0.17,0.68l-1.4-0.12l0-0.01c-1.28-0.15-2.47-0.6-3.48-1.27l0.69-0.39
			C902.32,68.89,903.38,69.25,904.52,69.34z"/>
		<path class="st1" d="M909.86,69.79l3.06,0.26l0.52,0.74l-4.33-0.36l0.15-0.63C909.46,69.8,909.66,69.8,909.86,69.79z"/>
		<path class="st1" d="M965.46,53.09c0.3-3.78-2.64-7.11-6.55-7.44l-4.26-0.36l0.2-0.34l-0.84-0.41l4.95,0.42
			c4.3,0.36,7.54,4.04,7.21,8.19c-0.21,2.7-1.88,4.95-4.21,6.09c0.08-0.29,0.14-0.59,0.17-0.89
			C963.99,57.25,965.28,55.35,965.46,53.09z"/>
		<path class="st1" d="M943.3,43.64l-0.5,0.13l0.19,0.53l-30.6-2.57c0.14-0.23,0.28-0.45,0.44-0.66L943.3,43.64z"/>
		<path class="st1" d="M955.55,88.11c3.02,0.25,5.76-1.37,6.98-3.86l0.1,0.11l0.91-0.7c-0.88,2.61-3.18,4.55-5.97,5.04l-56.94-4.78
			c0.83-0.2,1.7-0.28,2.6-0.21L955.55,88.11z"/>
		<path class="st1" d="M915.21,56.46c-0.33-0.29-0.69-0.55-1.07-0.78l2.84,0.24l-1.08,0.6L915.21,56.46z"/>
		<path class="st1" d="M954.01,59.02l2.21,0.19l1.23,0.6l0.28-0.48l0.1,0.01c1.58,0.13,3.07-0.24,4.32-0.99
			c-0.04,0.3-0.09,0.6-0.17,0.89c-1.17,0.58-2.51,0.87-3.92,0.8l0,0.01l-4.86-0.41C953.48,59.45,953.75,59.25,954.01,59.02z"/>
		<path class="st1" d="M938.08,57.68l3.03,0.25c0.22,0.27,0.45,0.52,0.7,0.75L919.3,56.8l-0.52-0.74l18.57,1.56l0.08,0.24
			L938.08,57.68z"/>
		<path class="st1" d="M898.07,61.18c-0.04,0.24-0.08,0.48-0.1,0.72c-0.12,1.47,0.26,2.88,1,4.07l-0.31,0.17l1.56,2.24
			c-1.98-1.53-3.17-3.94-2.97-6.54c0.09-1.14,0.44-2.2,0.99-3.14l-0.58,2.39L898.07,61.18z"/>
		<path class="st1" d="M960.87,76.23c-0.71-0.63-1.55-1.13-2.48-1.45C959.45,74.89,960.35,75.45,960.87,76.23z"/>
		<polygon class="st1" points="952.28,73.35 952.99,74.11 915.64,70.97 916.72,70.37 		"/>
		<path class="st1" d="M963.2,81.06c0.24-0.31,0.45-0.64,0.61-0.99c0.11,0.6,0.14,1.22,0.09,1.85c-0.01,0.09-0.02,0.17-0.03,0.25
			l-0.67-0.71C963.21,81.32,963.21,81.19,963.2,81.06z"/>
		<path class="st7" d="M894.64,22.68l-0.05,0.74c2.09-0.73,3.95-2.01,5.29-3.81c3.57-4.77,2.12-11.34-3.23-14.67
			c-5.36-3.33-12.59-2.16-16.16,2.61s-2.12,11.34,3.23,14.67c0.25,0.16,0.51,0.3,0.76,0.43l0.05-0.74c0.19-2.75,1.69-5,3.64-5.81
			l0.09-1.35l-2.07-0.16l0.04-0.62l2.07,0.16l0.11-1.67l-2.07-0.16l0.04-0.62l2.07,0.16l0.09-1.24l0.69,0.05l-0.09,1.24l2.54,0.19
			l0.09-1.24l0.69,0.05l-0.09,1.24l2.54,0.19l-0.04,0.62l-2.54-0.19l-0.11,1.67l2.54,0.19l-0.04,0.62l-2.54-0.19l-0.1,1.49
			C893.76,17.71,894.82,20.07,894.64,22.68z M892.92,9.76c-3.06-0.52-5.34-2.02-5.1-3.34c0.25-1.32,2.93-1.97,5.99-1.44
			c3.06,0.52,5.34,2.02,5.1,3.34C898.66,9.64,895.98,10.29,892.92,9.76z"/>
		<path class="st7" d="M891.5,15.01l-0.08,1.16c-0.43-0.2-0.9-0.33-1.38-0.36c-0.39-0.03-0.78,0-1.15,0.08l0.07-1.07L891.5,15.01z"
			/>
		<polygon class="st7" points="889.12,12.52 891.66,12.71 891.54,14.38 889,14.19 		"/>
		<path class="st7" d="M888.11,33.86c0,0.01,0,0.01,0,0.02c-1.02-0.26-1.91-0.91-2.59-1.82l2.75,0.21
			C888.25,32.81,888.18,33.34,888.11,33.86z"/>
		<path class="st7" d="M889.02,32.33l3.25,0.25c-0.95,0.95-2.15,1.49-3.41,1.42c0-0.01,0-0.03,0.01-0.04
			C888.93,33.43,889,32.88,889.02,32.33z"/>
		<path class="st7" d="M887.65,23.82l-0.18,2.62l0.69,0.05l0.17-2.54c0.84,0.14,1.7,0.19,2.54,0.16l-0.18,2.57l0.69,0.05l0.18-2.67
			c1.03-0.09,2.05-0.31,3.02-0.64l-0.24,3.56c-0.08-0.02-0.16-0.03-0.24-0.04l-9.63-0.73c-0.08-0.01-0.16,0-0.24,0l0.24-3.56
			C885.49,23.2,886.56,23.58,887.65,23.82z"/>
		<path class="st7" d="M888.27,32.28l0.75,0.06c-0.02,0.55-0.09,1.09-0.16,1.62c0,0.01,0,0.03-0.01,0.04c-0.03,0-0.05,0-0.08,0
			c-0.23-0.02-0.45-0.06-0.67-0.11c0-0.01,0-0.01,0-0.02C888.18,33.34,888.25,32.81,888.27,32.28z"/>
		<path class="st7" d="M888.18,16.11l-0.53,7.71c-1.09-0.24-2.15-0.62-3.16-1.16l0.05-0.74C884.72,19.18,886.23,16.92,888.18,16.11z
			"/>
		<path class="st7" d="M892.09,16.55c1.67,1.16,2.73,3.52,2.55,6.13l-0.05,0.74c-0.97,0.34-1.98,0.55-3.02,0.64L892.09,16.55z"/>
		<path class="st7" d="M890.03,15.81c0.49,0.04,0.95,0.16,1.38,0.36l-0.55,7.95c-0.84,0.03-1.7-0.03-2.54-0.16l0.55-8.06
			C889.26,15.81,889.64,15.78,890.03,15.81z"/>
		<path class="st8" d="M894.28,27.88l0.06-0.89c0.53,0.14,0.9,0.6,0.86,1.11c-0.03,0.38-0.28,0.7-0.64,0.86
			c-0.12-0.08-0.26-0.14-0.4-0.17C894.22,28.49,894.26,28.19,894.28,27.88z"/>
		<path class="st8" d="M884.17,28.03c-0.15,0.01-0.29,0.05-0.42,0.11c-0.33-0.21-0.54-0.56-0.51-0.95c0.03-0.51,0.47-0.91,1.01-0.97
			l-0.06,0.89C884.16,27.43,884.15,27.73,884.17,28.03z"/>
		<path class="st8" d="M894.11,26.95c0.08,0.01,0.16,0.02,0.24,0.04l-0.06,0.89c-0.02,0.31-0.06,0.61-0.11,0.91
			c-0.06-0.01-0.12-0.03-0.19-0.03l-9.63-0.73c-0.06,0-0.13,0-0.19,0c-0.01-0.3-0.01-0.61,0.01-0.92l0.06-0.89
			c0.08-0.01,0.16-0.01,0.24,0L894.11,26.95z"/>
		<path class="st8" d="M884.45,29.86l-0.22-0.02c-0.22-0.02-0.43,0.03-0.61,0.11c-0.33-0.21-0.54-0.56-0.51-0.95
			c0.03-0.38,0.28-0.7,0.64-0.86c0.13,0.08,0.28,0.14,0.44,0.18C884.22,28.85,884.32,29.37,884.45,29.86z"/>
		<path class="st8" d="M893.63,30.55c0.2-0.46,0.37-0.96,0.48-1.49c0.16-0.01,0.32-0.04,0.46-0.11c0.33,0.21,0.54,0.56,0.51,0.95
			c-0.03,0.38-0.28,0.7-0.64,0.86c-0.17-0.11-0.37-0.18-0.59-0.2L893.63,30.55z"/>
		<path class="st8" d="M893.96,29.07c0.05,0,0.1,0,0.15,0c-0.11,0.52-0.28,1.02-0.48,1.49l-9.18-0.69
			c-0.14-0.49-0.23-1.01-0.27-1.54c0.05,0.01,0.1,0.02,0.15,0.03L893.96,29.07z"/>
		<path class="st8" d="M894.17,28.79c0.15,0.03,0.28,0.09,0.4,0.17c-0.14,0.06-0.3,0.1-0.46,0.11
			C894.13,28.97,894.15,28.88,894.17,28.79z"/>
		<path class="st8" d="M884.18,28.32c-0.16-0.03-0.31-0.09-0.44-0.18c0.13-0.06,0.27-0.1,0.42-0.11
			C884.17,28.13,884.18,28.22,884.18,28.32z"/>
		<path class="st8" d="M893.96,29.07l-9.63-0.73c-0.05,0-0.1-0.02-0.15-0.03c-0.01-0.09-0.01-0.19-0.02-0.28
			c0.06,0,0.12-0.01,0.19,0l9.63,0.73c0.06,0,0.13,0.02,0.19,0.03c-0.02,0.09-0.04,0.18-0.06,0.28
			C894.06,29.07,894.01,29.07,893.96,29.07z"/>
		<path class="st8" d="M893.84,30.88c0.22,0.02,0.43-0.03,0.61-0.11c0.33,0.21,0.54,0.56,0.51,0.95c-0.04,0.58-0.6,1.02-1.25,0.97
			l-1.44-0.11c0.48-0.48,0.89-1.06,1.22-1.73L893.84,30.88z"/>
		<path class="st8" d="M884.55,30.18c0.23,0.7,0.56,1.35,0.97,1.89l-1.44-0.11c-0.65-0.05-1.14-0.57-1.1-1.15
			c0.03-0.38,0.28-0.7,0.64-0.86c0.17,0.11,0.37,0.18,0.59,0.2L884.55,30.18z"/>
		<path class="st8" d="M893.49,30.85c-0.33,0.66-0.74,1.25-1.22,1.73l-3.25-0.25c0.01-0.14,0.01-0.28,0.01-0.42l-0.75-0.01
			c0,0.12,0,0.25-0.01,0.37l-2.75-0.21c-0.41-0.55-0.74-1.19-0.97-1.89L893.49,30.85z"/>
		<path class="st8" d="M888.28,31.91l0.75,0.01c0,0.14,0,0.28-0.01,0.42l-0.75-0.06C888.28,32.15,888.28,32.03,888.28,31.91z"/>
		<path class="st8" d="M884.45,29.86c0.03,0.11,0.06,0.21,0.1,0.32l-0.34-0.03c-0.22-0.02-0.42-0.09-0.59-0.2
			c0.18-0.08,0.39-0.13,0.61-0.11L884.45,29.86z"/>
		<path class="st8" d="M893.49,30.85c0.05-0.1,0.1-0.2,0.14-0.3l0.22,0.02c0.22,0.02,0.42,0.09,0.59,0.2
			c-0.18,0.08-0.39,0.13-0.61,0.11L893.49,30.85z"/>
		<path class="st8" d="M893.49,30.85l-8.94-0.68c-0.03-0.11-0.07-0.21-0.1-0.32l9.18,0.69C893.59,30.65,893.54,30.75,893.49,30.85z"
			/>
		<polygon class="st1" points="891.78,10.85 892.47,10.9 892.39,12.14 891.7,12.09 		"/>
		<polygon class="st1" points="891.66,12.71 892.35,12.77 892.23,14.44 891.54,14.38 		"/>
		<path class="st1" d="M891.5,15.01l0.69,0.05l-0.1,1.49c-0.21-0.15-0.44-0.28-0.67-0.38L891.5,15.01z"/>
		<path class="st1" d="M891.39,26.74l-0.69-0.05l0.18-2.57c0.23-0.01,0.47-0.02,0.7-0.04L891.39,26.74z"/>
		<path class="st1" d="M892.09,16.55l-0.52,7.52c-0.23,0.02-0.46,0.04-0.7,0.04l0.55-7.95C891.65,16.28,891.87,16.41,892.09,16.55z"
			/>
		<polygon class="st1" points="888.55,10.61 889.24,10.66 889.16,11.9 888.47,11.85 		"/>
		<path class="st1" d="M888.89,15.89c-0.24,0.05-0.48,0.13-0.71,0.22l0.09-1.35l0.69,0.05L888.89,15.89z"/>
		<polygon class="st1" points="889,14.19 888.31,14.14 888.43,12.47 889.12,12.52 		"/>
		<path class="st1" d="M888.16,26.5l-0.69-0.05l0.18-2.62c0.23,0.05,0.46,0.09,0.69,0.13L888.16,26.5z"/>
		<path class="st1" d="M888.89,15.89l-0.55,8.06c-0.23-0.04-0.46-0.08-0.69-0.13l0.53-7.71C888.41,16.02,888.64,15.94,888.89,15.89z
			"/>
		<polygon class="st1" points="894.93,12.33 894.88,12.96 892.35,12.77 892.39,12.14 		"/>
		<polygon class="st1" points="886.36,12.31 886.4,11.69 888.47,11.85 888.43,12.47 		"/>
		<polygon class="st1" points="889.12,12.52 889.16,11.9 891.7,12.09 891.66,12.71 		"/>
		<polygon class="st1" points="891.7,12.09 892.39,12.14 892.35,12.77 891.66,12.71 		"/>
		<polygon class="st1" points="888.43,12.47 888.47,11.85 889.16,11.9 889.12,12.52 		"/>
		<polygon class="st1" points="889,14.19 891.54,14.38 891.5,15.01 888.96,14.82 		"/>
		<polygon class="st1" points="886.2,14.61 886.25,13.98 888.31,14.14 888.27,14.76 		"/>
		<polygon class="st1" points="894.77,14.63 894.72,15.25 892.19,15.06 892.23,14.44 		"/>
		<polygon class="st1" points="891.54,14.38 892.23,14.44 892.19,15.06 891.5,15.01 		"/>
		<polygon class="st1" points="888.96,14.82 888.27,14.76 888.31,14.14 889,14.19 		"/>
		<path class="st7" d="M898.91,8.32c0.25-1.32-2.04-2.82-5.1-3.34c-3.06-0.52-5.74,0.12-5.99,1.44c-0.25,1.32,2.04,2.82,5.1,3.34
			C895.98,10.29,898.66,9.64,898.91,8.32z M894.08,8.33c-1.89-0.32-3.29-1.25-3.14-2.06c0.15-0.81,1.8-1.21,3.69-0.89
			c1.89,0.32,3.29,1.25,3.14,2.06C897.62,8.25,895.96,8.65,894.08,8.33z"/>
		<path class="st9" d="M898.91,8.32c0.25-1.32-2.04-2.82-5.1-3.34c-3.06-0.52-5.74,0.12-5.99,1.44c-0.25,1.32,2.04,2.82,5.1,3.34
			C895.98,10.29,898.66,9.64,898.91,8.32z M894.08,8.33c-1.89-0.32-3.29-1.25-3.14-2.06c0.15-0.81,1.8-1.21,3.69-0.89
			c1.89,0.32,3.29,1.25,3.14,2.06C897.62,8.25,895.96,8.65,894.08,8.33z"/>
		<path class="st7" d="M890.93,6.27c0.15-0.81,1.8-1.21,3.69-0.89c1.89,0.32,3.29,1.25,3.14,2.06c-0.15,0.81-1.8,1.21-3.69,0.89
			C892.19,8,890.78,7.08,890.93,6.27z"/>
		<path class="st9" d="M890.93,6.27c0.15-0.81,1.8-1.21,3.69-0.89c1.89,0.32,3.29,1.25,3.14,2.06c-0.15,0.81-1.8,1.21-3.69,0.89
			C892.19,8,890.78,7.08,890.93,6.27z"/>
		<path class="st10" d="M890.93,6.27c0.15-0.81,1.8-1.21,3.69-0.89c1.89,0.32,3.29,1.25,3.14,2.06c-0.15,0.81-1.8,1.21-3.69,0.89
			C892.19,8,890.78,7.08,890.93,6.27z"/>
		<polygon class="st11" points="951.75,43.44 954.01,44.54 951.25,44.31 		"/>
		<path class="st11" d="M946.27,44.59c-1.03,0.01-2.05,0.19-3,0.53l0.5,1.43c-0.96,0.47-1.79,1.09-2.46,1.82l-2.83-1.38l-1.61,2.77
			l2.83,1.38c-0.29,0.92-0.39,1.9-0.28,2.89l-3.04,0.81l0.97,2.79l0.74,0.06l2.38-0.64c0.19,0.31,0.41,0.61,0.65,0.89l12.89,1.08
			c0.22-0.19,0.42-0.39,0.61-0.59l1.6,0.78l1.51,0.13l1.33-2.29l-2.83-1.38c0.29-0.92,0.39-1.9,0.28-2.89l2.72-0.73
			c-1.13-0.81-2.5-1.36-3.92-1.52c-0.25-0.03-0.51-0.05-0.71-0.18c-0.24-0.16-0.34-0.44-0.44-0.7c-0.65-1.67-1.99-3.1-3.67-4.01
			l-0.2,0.34c-1.02-0.28-2.11-0.4-3.2-0.31l-0.36-1.03L946.27,44.59z M946.59,49.45c2.4-0.64,4.95,0.61,5.71,2.79
			c0.76,2.18-0.57,4.46-2.96,5.1c-2.39,0.64-4.95-0.61-5.71-2.79C942.86,52.37,944.19,50.09,946.59,49.45z"/>
		<path class="st11" d="M943.26,45.12l-0.28-0.8l3.28,0.28C945.24,44.6,944.21,44.77,943.26,45.12z"/>
		<polygon class="st11" points="946.47,43.91 943.3,43.64 946.12,42.89 		"/>
		<path class="st11" d="M952.16,60.25l0.96,2.76l-3.32,0.89l-0.96-2.76c-1.09,0.08-2.18-0.03-3.2-0.31l-1.47,2.53l-3.1-1.51
			l1.47-2.53c-0.25-0.19-0.49-0.4-0.72-0.62l11.37,0.96C952.86,59.87,952.52,60.07,952.16,60.25z"/>
		<path class="st11" d="M954.65,45.29l-1.27,2.19c0.83,0.62,1.53,1.38,2.07,2.26l3.04-0.81l1.05,3.03l-0.32,0.08
			c-1.13-0.81-2.5-1.36-3.92-1.52c-0.25-0.03-0.51-0.05-0.71-0.18c-0.24-0.16-0.34-0.44-0.44-0.7c-0.65-1.67-1.99-3.1-3.67-4.01
			l0.38-0.65L954.65,45.29z"/>
		<polygon class="st11" points="956.22,59.21 957.73,59.33 957.45,59.81 		"/>
		<path class="st11" d="M941.11,57.94l12.89,1.08c-0.26,0.22-0.53,0.43-0.82,0.63l-11.37-0.96
			C941.56,58.45,941.33,58.2,941.11,57.94z"/>
		<path class="st11" d="M946.27,44.59c0.15,0,0.3,0,0.45,0.01l0.01,0.03L946.27,44.59z"/>
		<path class="st11" d="M946.71,44.59c-0.15-0.01-0.3-0.01-0.45-0.01l-3.28-0.28l-0.19-0.53l0.5-0.13l3.17,0.27L946.71,44.59z"/>
		<polygon class="st11" points="954.65,45.29 950.86,44.97 951.25,44.31 954.01,44.54 954.85,44.95 		"/>
		<polygon class="st11" points="937.43,57.86 937.35,57.62 938.08,57.68 		"/>
		<path class="st11" d="M956.69,73.72l-4.41-0.37l-0.7-0.75l1.92-1.47l1.52,1.62c0.68-0.33,1.43-0.55,2.22-0.63l0.09-1.2
			c0.81-0.28,1.7-0.41,2.58-0.36l-0.14,1.77c0.77,0.21,1.48,0.55,2.09,0.99l1.75-1.34l1.24,1.32c0.12,0.17,0.22,0.35,0.32,0.53
			l-1.65,1.26c0.38,0.62,0.64,1.3,0.74,2.02l2.31,0.19l-0.18,2.29l-2.31-0.19c-0.07,0.23-0.16,0.45-0.27,0.66
			C963.22,76.72,960.34,74.03,956.69,73.72z"/>
		<path class="st11" d="M964.55,82.89l-1.01,0.77c0.16-0.48,0.27-0.97,0.33-1.49L964.55,82.89z"/>
		<path class="st11" d="M958.39,74.78c-0.03,0-0.06-0.01-0.09-0.01c-1.82-0.15-3.41,1.06-3.54,2.7c-0.13,1.65,1.24,3.1,3.07,3.26
			c1.82,0.15,3.41-1.06,3.54-2.7c0.05-0.65-0.14-1.28-0.49-1.8c1.38,1.22,2.25,2.95,2.33,4.83c-0.06,0.07-0.11,0.15-0.17,0.22
			l0.17,0.19c0,0.13-0.01,0.26-0.02,0.4c-0.07,0.86-0.3,1.66-0.66,2.39l-1.42-1.51c-0.68,0.33-1.43,0.55-2.22,0.63l-0.17,2.09
			l-2.53-0.21l0.17-2.09c-0.77-0.21-1.48-0.55-2.09-0.99l-1.75,1.34l-1.66-1.77l1.75-1.34c-0.38-0.62-0.64-1.3-0.74-2.02l-2.31-0.19
			l0.18-2.29l2.31,0.19c0.22-0.69,0.58-1.32,1.05-1.87l-0.11-0.11l3.65,0.31C957.25,74.47,957.83,74.59,958.39,74.78z"/>
		<path class="st11" d="M959.93,70.25l-0.03,0.32c-0.88-0.05-1.76,0.08-2.58,0.36l0.07-0.89L959.93,70.25z"/>
		<path class="st11" d="M965.27,73.76l-0.11,0.08c-0.09-0.18-0.2-0.36-0.32-0.53L965.27,73.76z"/>
		<path class="st11" d="M963.21,81.46l0.67,0.71c-0.06,0.52-0.17,1.01-0.33,1.49l-0.91,0.7l-0.1-0.11c0.36-0.73,0.59-1.54,0.66-2.39
			C963.2,81.72,963.2,81.59,963.21,81.46z"/>
		<path class="st11" d="M956.69,73.72c3.65,0.31,6.53,3,7.12,6.34c-0.17,0.35-0.37,0.68-0.61,0.99c-0.08-1.89-0.95-3.61-2.33-4.83
			c-0.53-0.77-1.42-1.33-2.48-1.45c-0.55-0.19-1.14-0.31-1.75-0.36l-3.65-0.31l-0.71-0.75L956.69,73.72z"/>
		<path class="st11" d="M900.53,68.83l-0.31-0.45c0.16,0.12,0.32,0.24,0.49,0.35L900.53,68.83z"/>
		<path class="st11" d="M898.41,58.03l0.25,0.05c-0.15,0.2-0.28,0.41-0.41,0.62L898.41,58.03z"/>
		<path class="st11" d="M907.57,72.13l0.97-0.15c-0.11-0.54-0.13-1.08-0.06-1.62l0.63,0.05l-0.53,2.17l-3.41-0.74l0.42-1.72
			l1.9,0.16C907.43,70.9,907.45,71.52,907.57,72.13z"/>
		<polygon class="st11" points="918.2,55.23 918.78,56.06 916.98,55.91 		"/>
		<polygon class="st11" points="914.15,71.8 913.43,70.79 915.64,70.97 		"/>
		<path class="st11" d="M905.66,54.96c-1.06-0.09-2.09,0.03-3.04,0.33l-0.97-1.39l2.94-1.64l1.72,2.46c0.53-0.17,1.08-0.3,1.64-0.37
			c-0.07,0.26-0.13,0.52-0.16,0.79L905.66,54.96z"/>
		<path class="st11" d="M916.43,64.58l-0.02,0.03c-0.07,0.08-0.15,0.19-0.2,0.21c-0.07,0.03-0.24,0-0.38-0.03l-0.04-0.01
			c-1.01-0.18-2.06-0.15-3.04,0.07c0.51-0.5,0.89-1.13,1.07-1.85c0.54-2.21-1.01-4.43-3.47-4.97c-2.45-0.54-4.88,0.82-5.42,3.03
			c-0.54,2.21,1.01,4.43,3.47,4.97c0.52,0.11,1.04,0.14,1.54,0.09c-0.15,0.11-0.29,0.23-0.43,0.35c-0.95,0.85-1.6,1.95-1.88,3.13
			l-1.86-0.16l0.1-0.4c-1-0.42-1.89-1.01-2.64-1.72l-1.82,1.01c-1-0.59-1.84-1.41-2.44-2.38l2.38-1.33
			c-0.38-0.91-0.58-1.88-0.57-2.87l-2.71-0.59c0.21-1.1,0.69-2.09,1.36-2.93l2.1,0.46c0.45-0.9,1.08-1.69,1.84-2.35l-0.33-0.47
			c0.81-0.22,1.67-0.31,2.57-0.24l9.6,0.81c0.1,0.09,0.2,0.18,0.3,0.27l0.38-0.21l3.4,0.29l0.78,1.12l-2.69,1.5
			c0.38,0.91,0.58,1.88,0.57,2.87l1.33,0.29C918.15,63,917.15,63.69,916.43,64.58z"/>
		<path class="st11" d="M909,54.27c0.16,0,0.31,0,0.47,0l0.38-1.54c0.32-0.4,0.7-0.77,1.13-1.08l2.58,0.56l-0.68,2.8
			c0.45,0.19,0.87,0.41,1.26,0.66l-5.37-0.45C908.81,54.9,908.89,54.58,909,54.27z"/>
		<path class="st11" d="M912.43,69.34c-0.81,0.27-1.68,0.42-2.57,0.45l-1.25-0.1c0.26-0.97,0.8-1.88,1.59-2.58
			c1.39-1.25,3.47-1.8,5.41-1.45l0.04,0.01c0.26,0.05,0.62,0.11,0.97-0.03c0.29-0.12,0.45-0.32,0.58-0.49l0.02-0.03
			c0.9-1.11,2.3-1.85,3.81-2.03l-0.72,2.96l-3.11-0.68c-0.45,0.9-1.08,1.69-1.84,2.35l1.72,2.46l-0.36,0.2l-3.8-0.32L912.43,69.34z"
			/>
		<path class="st11" d="M909.85,52.73l0.31-1.26l0.82,0.18C910.55,51.96,910.17,52.32,909.85,52.73z"/>
		<path class="st11" d="M908.77,55.22l-0.98-0.08c0.04-0.27,0.09-0.53,0.16-0.79c0.35-0.05,0.7-0.07,1.05-0.08
			C908.89,54.58,908.81,54.9,908.77,55.22z"/>
		<path class="st11" d="M908.54,71.98l-0.97,0.15c-0.13-0.61-0.15-1.23-0.07-1.84l0.98,0.08C908.41,70.9,908.43,71.45,908.54,71.98z
			"/>
		<path class="st11" d="M917.23,65.11l-0.02,0.03c-0.13,0.17-0.3,0.37-0.58,0.49c-0.35,0.14-0.71,0.08-0.97,0.03l-0.04-0.01
			c-1.95-0.35-4.02,0.21-5.41,1.45c-0.79,0.7-1.33,1.61-1.59,2.58l-0.99-0.08c0.28-1.18,0.93-2.28,1.88-3.13
			c0.14-0.12,0.28-0.24,0.43-0.35c1.09-0.1,2.08-0.56,2.81-1.27c0.99-0.22,2.03-0.25,3.04-0.07l0.04,0.01
			c0.14,0.03,0.31,0.06,0.38,0.03c0.05-0.02,0.14-0.13,0.2-0.21l0.02-0.03c0.72-0.89,1.72-1.58,2.86-2l1.78,0.39l-0.03,0.11
			C919.53,63.26,918.12,64,917.23,65.11z"/>
		<path class="st11" d="M898.97,65.97c0.6,0.97,1.43,1.79,2.44,2.38l-0.69,0.39c-0.17-0.11-0.33-0.23-0.49-0.35l-1.56-2.24
			L898.97,65.97z"/>
		<path class="st11" d="M905.6,55.65c-0.89-0.07-1.76,0.01-2.57,0.24l-0.42-0.6c0.95-0.29,1.98-0.42,3.04-0.33l2.13,0.18
			c-0.03,0.22-0.05,0.44-0.05,0.66l0.98,0.03c0-0.2,0.02-0.41,0.05-0.61l5.37,0.45c0.38,0.24,0.74,0.5,1.07,0.78L905.6,55.65z"/>
		<path class="st11" d="M898.07,61.18l-0.4-0.09l0.58-2.39c0.13-0.21,0.26-0.42,0.41-0.62l0.77,0.17
			C898.75,59.09,898.28,60.08,898.07,61.18z"/>
		<polygon class="st11" points="915.9,56.51 916.98,55.91 918.78,56.06 919.3,56.8 		"/>
		<path class="st11" d="M908.61,69.68l1.25,0.1c-0.2,0.01-0.4,0.01-0.6,0l-0.15,0.63l-0.63-0.05
			C908.51,70.14,908.55,69.91,908.61,69.68z"/>
		<path class="st11" d="M907.62,69.6c-0.05,0.23-0.1,0.45-0.12,0.68l-1.9-0.16l0.17-0.68L907.62,69.6z"/>
		<polygon class="st11" points="916.72,70.37 915.64,70.97 913.43,70.79 912.92,70.05 		"/>
		<path class="st11" d="M908.72,55.83l-0.98-0.03c0-0.22,0.02-0.44,0.05-0.66l0.98,0.08C908.74,55.42,908.72,55.63,908.72,55.83z"/>
		<path class="st11" d="M908.48,70.37l-0.98-0.08c0.03-0.23,0.07-0.46,0.12-0.68l0.99,0.08C908.55,69.91,908.51,70.14,908.48,70.37z
			"/>
		<path class="st12" d="M940.81,67.27l0.42-1.73l-1.75-0.38c0.01-0.56-0.1-1.11-0.32-1.62l1.51-0.85l-1.06-1.52l-1.51,0.85
			c-0.42-0.4-0.92-0.73-1.49-0.97l0.39-1.58l-1.92-0.42l-0.39,1.58c-0.62-0.02-1.22,0.07-1.78,0.25l-0.97-1.39l-1.66,0.92l0.97,1.39
			c-0.43,0.37-0.79,0.82-1.04,1.32l-1.75-0.38l-0.42,1.73l1.75,0.38c-0.01,0.56,0.1,1.11,0.32,1.62l-1.51,0.85l1.06,1.52l1.51-0.85
			c0.42,0.4,0.92,0.73,1.49,0.97l-0.39,1.58l1.92,0.42l0.39-1.58c0.62,0.02,1.22-0.07,1.78-0.25l0.97,1.39l1.66-0.92l-0.97-1.39
			c0.43-0.37,0.79-0.82,1.04-1.32L940.81,67.27z M937.14,65.56c-0.3,1.24-1.67,2.01-3.06,1.71c-1.38-0.3-2.26-1.56-1.95-2.8
			c0.3-1.24,1.67-2.01,3.06-1.71C936.57,63.06,937.45,64.31,937.14,65.56z"/>
		<path class="st12" d="M920.63,49.64c0.09,0.78,0.71,1.46,1.6,1.65c1.11,0.24,2.2-0.37,2.45-1.37c0.02-0.07,0.03-0.15,0.04-0.22
			c0.87,0.31,1.65,0.82,2.27,1.45l-0.78-0.17c-0.2,0.41-0.49,0.76-0.83,1.06l0.78,1.11l-1.33,0.74l-0.78-1.11
			c-0.45,0.15-0.93,0.22-1.43,0.2l-0.31,1.26l-1.54-0.34l0.31-1.26c-0.45-0.19-0.85-0.46-1.19-0.77l-1.21,0.68l-0.85-1.21l1.21-0.68
			c-0.03-0.06-0.05-0.12-0.07-0.19C919.48,50.12,920.03,49.84,920.63,49.64z"/>
		<path class="st12" d="M923.11,47.69c-0.95-0.21-1.89,0.21-2.29,0.97c-0.72,0.18-1.41,0.46-2.02,0.84c0-0.04-0.01-0.08,0-0.12
			l-1.4-0.31l0.34-1.38l1.4,0.31c0.2-0.41,0.49-0.76,0.83-1.06l-0.78-1.11l1.33-0.74l0.78,1.11c0.45-0.15,0.93-0.22,1.43-0.2
			l0.31-1.26l1.54,0.34l-0.31,1.26c0.45,0.19,0.85,0.46,1.19,0.77l1.21-0.68l0.85,1.21l-1.21,0.68c0.17,0.41,0.26,0.85,0.26,1.3
			l1.4,0.31l-0.18,0.72c-0.86-0.91-2.01-1.58-3.26-1.93C924.25,48.22,923.75,47.83,923.11,47.69z"/>
		<path class="st12" d="M924.51,48.71c1.26,0.35,2.4,1.03,3.26,1.93l-0.16,0.66l-0.63-0.14c-0.62-0.64-1.41-1.14-2.27-1.45
			C924.75,49.36,924.68,49.01,924.51,48.71z"/>
		<path class="st12" d="M920.82,48.66c-0.07,0.12-0.12,0.26-0.15,0.4c-0.05,0.2-0.06,0.4-0.04,0.59c-0.6,0.19-1.16,0.48-1.65,0.84
			c-0.11-0.32-0.18-0.65-0.18-0.99C919.42,49.11,920.1,48.83,920.82,48.66z"/>
		<path class="st11" d="M936.77,79.17c-0.01,0.45,0.08,0.89,0.26,1.3l-1.21,0.68l0.85,1.21l1.21-0.68c0.34,0.32,0.74,0.58,1.19,0.77
			l-0.31,1.26l1.54,0.34l0.31-1.26c0.5,0.02,0.98-0.06,1.43-0.2l0.78,1.11l1.33-0.74l-0.78-1.11c0.34-0.3,0.63-0.65,0.83-1.06
			l1.4,0.31l0.34-1.38l-1.4-0.31c0.01-0.45-0.08-0.89-0.26-1.3l1.21-0.68l-0.85-1.21l-1.21,0.68c-0.34-0.32-0.74-0.58-1.19-0.77
			l0.31-1.26L941,74.52l-0.31,1.26c-0.5-0.02-0.98,0.06-1.43,0.2l-0.78-1.11l-1.33,0.74l0.78,1.11c-0.34,0.3-0.63,0.65-0.83,1.06
			l-1.4-0.31l-0.34,1.38L936.77,79.17z M938.64,78.85c0.24-1,1.34-1.61,2.45-1.37c1.11,0.24,1.81,1.24,1.56,2.24
			c-0.24,1-1.34,1.61-2.45,1.37C939.1,80.85,938.4,79.84,938.64,78.85z"/>
		<path class="st12" d="M915.98,78.22c-0.01,0.45,0.08,0.89,0.26,1.3l-1.21,0.68l0.85,1.21l1.21-0.68c0.34,0.32,0.74,0.58,1.19,0.77
			l-0.31,1.26l1.54,0.34l0.31-1.26c0.5,0.02,0.98-0.06,1.43-0.2l0.78,1.11l1.33-0.74l-0.78-1.11c0.34-0.3,0.63-0.65,0.83-1.06
			l1.4,0.31l0.34-1.38l-1.4-0.31c0.01-0.45-0.08-0.89-0.26-1.3l1.21-0.68l-0.85-1.21l-1.21,0.68c-0.34-0.32-0.74-0.58-1.19-0.77
			l0.31-1.26l-1.54-0.34l-0.31,1.26c-0.5-0.02-0.98,0.06-1.43,0.2l-0.78-1.11l-1.33,0.74l0.78,1.11c-0.34,0.3-0.63,0.65-0.83,1.06
			l-1.4-0.31l-0.34,1.38L915.98,78.22z M917.85,77.9c0.24-1,1.34-1.61,2.45-1.37c1.11,0.24,1.81,1.24,1.56,2.24
			c-0.24,1-1.34,1.61-2.45,1.37C918.31,79.9,917.61,78.89,917.85,77.9z"/>
		<path class="st4" d="M978.31,105.19l-5.64-0.47c0.33,3.9,3.78,7.16,8.22,7.53l1.26-15.98c-4.89-0.41-9.14,2.83-9.49,7.25
			c-0.01,0.17-0.02,0.34-0.02,0.5l5.72,0.48L978.31,105.19z M979.25,98.84c-0.55,0.36-1.09,0.72-1.61,1.09
			c-0.53,0.37-1.03,0.77-1.53,1.17c-0.49,0.41-0.94,0.85-1.41,1.32c0.26-0.58,0.63-1.12,1.08-1.6c0.45-0.48,0.95-0.92,1.49-1.31
			c0.55-0.38,1.12-0.73,1.74-1.02c0.61-0.29,1.24-0.55,1.92-0.71L979.25,98.84z"/>
		<path class="st4" d="M978.36,104.5l-0.05,0.69l-5.64-0.47c-0.02-0.23-0.03-0.46-0.02-0.7L978.36,104.5z"/>
		<path class="st11" d="M982.29,94.57l3.94,0.33l-0.46,5.84l-0.27-0.02c-0.49-0.04-0.92,0.29-0.95,0.73l-0.01,0.11
			c-0.03,0.44,0.34,0.84,0.83,0.88l0.27,0.02l-0.34,4.26l-0.27-0.02c-0.49-0.04-0.92,0.29-0.95,0.73l-0.01,0.11
			c-0.03,0.44,0.34,0.84,0.83,0.88l0.27,0.02l-0.46,5.84l-3.94-0.33l0.13-1.7l1.26-15.98L982.29,94.57z"/>
		<path class="st11" d="M994.05,101.44c0.49,0.04,0.86,0.44,0.83,0.88l-0.01,0.11c-0.03,0.44-0.46,0.77-0.95,0.73l-8.29-0.7
			l0.14-1.72L994.05,101.44z"/>
		<path class="st11" d="M984.53,101.56l0.01-0.11c0.03-0.44,0.46-0.77,0.95-0.73l0.27,0.02l-0.14,1.72l-0.27-0.02
			C984.87,102.4,984.49,102,984.53,101.56z"/>
		<path class="st11" d="M993.58,107.42c0.49,0.04,0.86,0.44,0.83,0.88l-0.01,0.11c-0.03,0.44-0.46,0.77-0.95,0.73l-8.29-0.7
			l0.14-1.72L993.58,107.42z"/>
		<path class="st11" d="M984.06,107.54l0.01-0.11c0.03-0.44,0.46-0.77,0.95-0.73l0.27,0.02l-0.14,1.72l-0.27-0.02
			C984.39,108.38,984.02,107.98,984.06,107.54z"/>
		<path class="st4" d="M976.12,101.11c-0.49,0.41-0.94,0.85-1.41,1.32c0.26-0.58,0.63-1.12,1.08-1.6c0.45-0.48,0.95-0.92,1.49-1.31
			c0.55-0.38,1.12-0.73,1.74-1.02c0.61-0.29,1.24-0.55,1.92-0.71l-1.67,1.06c-0.55,0.36-1.09,0.72-1.61,1.09
			C977.11,100.31,976.61,100.7,976.12,101.11z"/>
		<path class="st13" d="M976.12,101.11c-0.49,0.41-0.94,0.85-1.41,1.32c0.26-0.58,0.63-1.12,1.08-1.6c0.45-0.48,0.95-0.92,1.49-1.31
			c0.55-0.38,1.12-0.73,1.74-1.02c0.61-0.29,1.24-0.55,1.92-0.71l-1.67,1.06c-0.55,0.36-1.09,0.72-1.61,1.09
			C977.11,100.31,976.61,100.7,976.12,101.11z"/>
	</g>
</g>
<g id="圖層_2">
</g>
</svg>
